<?xml version="1.0" encoding="utf-8" standalone="no"?>
<!DOCTYPE svg PUBLIC "-//W3C//DTD SVG 1.1//EN"
  "http://www.w3.org/Graphics/SVG/1.1/DTD/svg11.dtd">
<svg xmlns:xlink="http://www.w3.org/1999/xlink" width="460.8pt" height="345.6pt" viewBox="0 0 460.8 345.6" xmlns="http://www.w3.org/2000/svg" version="1.1">
 <metadata>
  <rdf:RDF xmlns:dc="http://purl.org/dc/elements/1.1/" xmlns:cc="http://creativecommons.org/ns#" xmlns:rdf="http://www.w3.org/1999/02/22-rdf-syntax-ns#">
   <cc:Work>
    <dc:type rdf:resource="http://purl.org/dc/dcmitype/StillImage"/>
    <dc:date>2024-12-25T11:58:16.484518</dc:date>
    <dc:format>image/svg+xml</dc:format>
    <dc:creator>
     <cc:Agent>
      <dc:title>Matplotlib v3.10.0, https://matplotlib.org/</dc:title>
     </cc:Agent>
    </dc:creator>
   </cc:Work>
  </rdf:RDF>
 </metadata>
 <defs>
  <style type="text/css">*{stroke-linejoin: round; stroke-linecap: butt}</style>
 </defs>
 <g id="figure_1">
  <g id="patch_1">
   <path d="M 0 345.6 
L 460.8 345.6 
L 460.8 0 
L 0 0 
z
" style="fill: #ffffff"/>
  </g>
  <g id="axes_1">
   <g id="patch_2">
    <path d="M 57.6 307.584 
L 414.72 307.584 
L 414.72 41.472 
L 57.6 41.472 
z
" style="fill: #ffffff"/>
   </g>
   <g id="matplotlib.axis_1">
    <g id="xtick_1">
     <g id="line2d_1">
      <path d="M 57.751386 307.584 
L 57.751386 41.472 
" clip-path="url(#p8e9287a100)" style="fill: none; stroke: #b0b0b0; stroke-width: 0.8; stroke-linecap: square"/>
     </g>
     <g id="line2d_2">
      <defs>
       <path id="m44c42195f3" d="M 0 0 
L 0 3.5 
" style="stroke: #000000; stroke-width: 0.8"/>
      </defs>
      <g>
       <use xlink:href="#m44c42195f3" x="57.751386" y="307.584" style="stroke: #000000; stroke-width: 0.8"/>
      </g>
     </g>
     <g id="text_1">
      <!-- 10 -->
      <g transform="translate(51.388886 322.182437) scale(0.1 -0.1)">
       <defs>
        <path id="DejaVuSans-31" d="M 794 531 
L 1825 531 
L 1825 4091 
L 703 3866 
L 703 4441 
L 1819 4666 
L 2450 4666 
L 2450 531 
L 3481 531 
L 3481 0 
L 794 0 
L 794 531 
z
" transform="scale(0.015625)"/>
        <path id="DejaVuSans-30" d="M 2034 4250 
Q 1547 4250 1301 3770 
Q 1056 3291 1056 2328 
Q 1056 1369 1301 889 
Q 1547 409 2034 409 
Q 2525 409 2770 889 
Q 3016 1369 3016 2328 
Q 3016 3291 2770 3770 
Q 2525 4250 2034 4250 
z
M 2034 4750 
Q 2819 4750 3233 4129 
Q 3647 3509 3647 2328 
Q 3647 1150 3233 529 
Q 2819 -91 2034 -91 
Q 1250 -91 836 529 
Q 422 1150 422 2328 
Q 422 3509 836 4129 
Q 1250 4750 2034 4750 
z
" transform="scale(0.015625)"/>
       </defs>
       <use xlink:href="#DejaVuSans-31"/>
       <use xlink:href="#DejaVuSans-30" transform="translate(63.623047 0)"/>
      </g>
     </g>
    </g>
    <g id="xtick_2">
     <g id="line2d_3">
      <path d="M 99.846108 307.584 
L 99.846108 41.472 
" clip-path="url(#p8e9287a100)" style="fill: none; stroke: #b0b0b0; stroke-width: 0.8; stroke-linecap: square"/>
     </g>
     <g id="line2d_4">
      <g>
       <use xlink:href="#m44c42195f3" x="99.846108" y="307.584" style="stroke: #000000; stroke-width: 0.8"/>
      </g>
     </g>
     <g id="text_2">
      <!-- 20 -->
      <g transform="translate(93.483608 322.182437) scale(0.1 -0.1)">
       <defs>
        <path id="DejaVuSans-32" d="M 1228 531 
L 3431 531 
L 3431 0 
L 469 0 
L 469 531 
Q 828 903 1448 1529 
Q 2069 2156 2228 2338 
Q 2531 2678 2651 2914 
Q 2772 3150 2772 3378 
Q 2772 3750 2511 3984 
Q 2250 4219 1831 4219 
Q 1534 4219 1204 4116 
Q 875 4013 500 3803 
L 500 4441 
Q 881 4594 1212 4672 
Q 1544 4750 1819 4750 
Q 2544 4750 2975 4387 
Q 3406 4025 3406 3419 
Q 3406 3131 3298 2873 
Q 3191 2616 2906 2266 
Q 2828 2175 2409 1742 
Q 1991 1309 1228 531 
z
" transform="scale(0.015625)"/>
       </defs>
       <use xlink:href="#DejaVuSans-32"/>
       <use xlink:href="#DejaVuSans-30" transform="translate(63.623047 0)"/>
      </g>
     </g>
    </g>
    <g id="xtick_3">
     <g id="line2d_5">
      <path d="M 141.94083 307.584 
L 141.94083 41.472 
" clip-path="url(#p8e9287a100)" style="fill: none; stroke: #b0b0b0; stroke-width: 0.8; stroke-linecap: square"/>
     </g>
     <g id="line2d_6">
      <g>
       <use xlink:href="#m44c42195f3" x="141.94083" y="307.584" style="stroke: #000000; stroke-width: 0.8"/>
      </g>
     </g>
     <g id="text_3">
      <!-- 30 -->
      <g transform="translate(135.57833 322.182437) scale(0.1 -0.1)">
       <defs>
        <path id="DejaVuSans-33" d="M 2597 2516 
Q 3050 2419 3304 2112 
Q 3559 1806 3559 1356 
Q 3559 666 3084 287 
Q 2609 -91 1734 -91 
Q 1441 -91 1130 -33 
Q 819 25 488 141 
L 488 750 
Q 750 597 1062 519 
Q 1375 441 1716 441 
Q 2309 441 2620 675 
Q 2931 909 2931 1356 
Q 2931 1769 2642 2001 
Q 2353 2234 1838 2234 
L 1294 2234 
L 1294 2753 
L 1863 2753 
Q 2328 2753 2575 2939 
Q 2822 3125 2822 3475 
Q 2822 3834 2567 4026 
Q 2313 4219 1838 4219 
Q 1578 4219 1281 4162 
Q 984 4106 628 3988 
L 628 4550 
Q 988 4650 1302 4700 
Q 1616 4750 1894 4750 
Q 2613 4750 3031 4423 
Q 3450 4097 3450 3541 
Q 3450 3153 3228 2886 
Q 3006 2619 2597 2516 
z
" transform="scale(0.015625)"/>
       </defs>
       <use xlink:href="#DejaVuSans-33"/>
       <use xlink:href="#DejaVuSans-30" transform="translate(63.623047 0)"/>
      </g>
     </g>
    </g>
    <g id="xtick_4">
     <g id="line2d_7">
      <path d="M 184.035551 307.584 
L 184.035551 41.472 
" clip-path="url(#p8e9287a100)" style="fill: none; stroke: #b0b0b0; stroke-width: 0.8; stroke-linecap: square"/>
     </g>
     <g id="line2d_8">
      <g>
       <use xlink:href="#m44c42195f3" x="184.035551" y="307.584" style="stroke: #000000; stroke-width: 0.8"/>
      </g>
     </g>
     <g id="text_4">
      <!-- 40 -->
      <g transform="translate(177.673051 322.182437) scale(0.1 -0.1)">
       <defs>
        <path id="DejaVuSans-34" d="M 2419 4116 
L 825 1625 
L 2419 1625 
L 2419 4116 
z
M 2253 4666 
L 3047 4666 
L 3047 1625 
L 3713 1625 
L 3713 1100 
L 3047 1100 
L 3047 0 
L 2419 0 
L 2419 1100 
L 313 1100 
L 313 1709 
L 2253 4666 
z
" transform="scale(0.015625)"/>
       </defs>
       <use xlink:href="#DejaVuSans-34"/>
       <use xlink:href="#DejaVuSans-30" transform="translate(63.623047 0)"/>
      </g>
     </g>
    </g>
    <g id="xtick_5">
     <g id="line2d_9">
      <path d="M 226.130273 307.584 
L 226.130273 41.472 
" clip-path="url(#p8e9287a100)" style="fill: none; stroke: #b0b0b0; stroke-width: 0.8; stroke-linecap: square"/>
     </g>
     <g id="line2d_10">
      <g>
       <use xlink:href="#m44c42195f3" x="226.130273" y="307.584" style="stroke: #000000; stroke-width: 0.8"/>
      </g>
     </g>
     <g id="text_5">
      <!-- 50 -->
      <g transform="translate(219.767773 322.182437) scale(0.1 -0.1)">
       <defs>
        <path id="DejaVuSans-35" d="M 691 4666 
L 3169 4666 
L 3169 4134 
L 1269 4134 
L 1269 2991 
Q 1406 3038 1543 3061 
Q 1681 3084 1819 3084 
Q 2600 3084 3056 2656 
Q 3513 2228 3513 1497 
Q 3513 744 3044 326 
Q 2575 -91 1722 -91 
Q 1428 -91 1123 -41 
Q 819 9 494 109 
L 494 744 
Q 775 591 1075 516 
Q 1375 441 1709 441 
Q 2250 441 2565 725 
Q 2881 1009 2881 1497 
Q 2881 1984 2565 2268 
Q 2250 2553 1709 2553 
Q 1456 2553 1204 2497 
Q 953 2441 691 2322 
L 691 4666 
z
" transform="scale(0.015625)"/>
       </defs>
       <use xlink:href="#DejaVuSans-35"/>
       <use xlink:href="#DejaVuSans-30" transform="translate(63.623047 0)"/>
      </g>
     </g>
    </g>
    <g id="xtick_6">
     <g id="line2d_11">
      <path d="M 268.224995 307.584 
L 268.224995 41.472 
" clip-path="url(#p8e9287a100)" style="fill: none; stroke: #b0b0b0; stroke-width: 0.8; stroke-linecap: square"/>
     </g>
     <g id="line2d_12">
      <g>
       <use xlink:href="#m44c42195f3" x="268.224995" y="307.584" style="stroke: #000000; stroke-width: 0.8"/>
      </g>
     </g>
     <g id="text_6">
      <!-- 60 -->
      <g transform="translate(261.862495 322.182437) scale(0.1 -0.1)">
       <defs>
        <path id="DejaVuSans-36" d="M 2113 2584 
Q 1688 2584 1439 2293 
Q 1191 2003 1191 1497 
Q 1191 994 1439 701 
Q 1688 409 2113 409 
Q 2538 409 2786 701 
Q 3034 994 3034 1497 
Q 3034 2003 2786 2293 
Q 2538 2584 2113 2584 
z
M 3366 4563 
L 3366 3988 
Q 3128 4100 2886 4159 
Q 2644 4219 2406 4219 
Q 1781 4219 1451 3797 
Q 1122 3375 1075 2522 
Q 1259 2794 1537 2939 
Q 1816 3084 2150 3084 
Q 2853 3084 3261 2657 
Q 3669 2231 3669 1497 
Q 3669 778 3244 343 
Q 2819 -91 2113 -91 
Q 1303 -91 875 529 
Q 447 1150 447 2328 
Q 447 3434 972 4092 
Q 1497 4750 2381 4750 
Q 2619 4750 2861 4703 
Q 3103 4656 3366 4563 
z
" transform="scale(0.015625)"/>
       </defs>
       <use xlink:href="#DejaVuSans-36"/>
       <use xlink:href="#DejaVuSans-30" transform="translate(63.623047 0)"/>
      </g>
     </g>
    </g>
    <g id="xtick_7">
     <g id="line2d_13">
      <path d="M 310.319717 307.584 
L 310.319717 41.472 
" clip-path="url(#p8e9287a100)" style="fill: none; stroke: #b0b0b0; stroke-width: 0.8; stroke-linecap: square"/>
     </g>
     <g id="line2d_14">
      <g>
       <use xlink:href="#m44c42195f3" x="310.319717" y="307.584" style="stroke: #000000; stroke-width: 0.8"/>
      </g>
     </g>
     <g id="text_7">
      <!-- 70 -->
      <g transform="translate(303.957217 322.182437) scale(0.1 -0.1)">
       <defs>
        <path id="DejaVuSans-37" d="M 525 4666 
L 3525 4666 
L 3525 4397 
L 1831 0 
L 1172 0 
L 2766 4134 
L 525 4134 
L 525 4666 
z
" transform="scale(0.015625)"/>
       </defs>
       <use xlink:href="#DejaVuSans-37"/>
       <use xlink:href="#DejaVuSans-30" transform="translate(63.623047 0)"/>
      </g>
     </g>
    </g>
    <g id="xtick_8">
     <g id="line2d_15">
      <path d="M 352.414438 307.584 
L 352.414438 41.472 
" clip-path="url(#p8e9287a100)" style="fill: none; stroke: #b0b0b0; stroke-width: 0.8; stroke-linecap: square"/>
     </g>
     <g id="line2d_16">
      <g>
       <use xlink:href="#m44c42195f3" x="352.414438" y="307.584" style="stroke: #000000; stroke-width: 0.8"/>
      </g>
     </g>
     <g id="text_8">
      <!-- 80 -->
      <g transform="translate(346.051938 322.182437) scale(0.1 -0.1)">
       <defs>
        <path id="DejaVuSans-38" d="M 2034 2216 
Q 1584 2216 1326 1975 
Q 1069 1734 1069 1313 
Q 1069 891 1326 650 
Q 1584 409 2034 409 
Q 2484 409 2743 651 
Q 3003 894 3003 1313 
Q 3003 1734 2745 1975 
Q 2488 2216 2034 2216 
z
M 1403 2484 
Q 997 2584 770 2862 
Q 544 3141 544 3541 
Q 544 4100 942 4425 
Q 1341 4750 2034 4750 
Q 2731 4750 3128 4425 
Q 3525 4100 3525 3541 
Q 3525 3141 3298 2862 
Q 3072 2584 2669 2484 
Q 3125 2378 3379 2068 
Q 3634 1759 3634 1313 
Q 3634 634 3220 271 
Q 2806 -91 2034 -91 
Q 1263 -91 848 271 
Q 434 634 434 1313 
Q 434 1759 690 2068 
Q 947 2378 1403 2484 
z
M 1172 3481 
Q 1172 3119 1398 2916 
Q 1625 2713 2034 2713 
Q 2441 2713 2670 2916 
Q 2900 3119 2900 3481 
Q 2900 3844 2670 4047 
Q 2441 4250 2034 4250 
Q 1625 4250 1398 4047 
Q 1172 3844 1172 3481 
z
" transform="scale(0.015625)"/>
       </defs>
       <use xlink:href="#DejaVuSans-38"/>
       <use xlink:href="#DejaVuSans-30" transform="translate(63.623047 0)"/>
      </g>
     </g>
    </g>
    <g id="xtick_9">
     <g id="line2d_17">
      <path d="M 394.50916 307.584 
L 394.50916 41.472 
" clip-path="url(#p8e9287a100)" style="fill: none; stroke: #b0b0b0; stroke-width: 0.8; stroke-linecap: square"/>
     </g>
     <g id="line2d_18">
      <g>
       <use xlink:href="#m44c42195f3" x="394.50916" y="307.584" style="stroke: #000000; stroke-width: 0.8"/>
      </g>
     </g>
     <g id="text_9">
      <!-- 90 -->
      <g transform="translate(388.14666 322.182437) scale(0.1 -0.1)">
       <defs>
        <path id="DejaVuSans-39" d="M 703 97 
L 703 672 
Q 941 559 1184 500 
Q 1428 441 1663 441 
Q 2288 441 2617 861 
Q 2947 1281 2994 2138 
Q 2813 1869 2534 1725 
Q 2256 1581 1919 1581 
Q 1219 1581 811 2004 
Q 403 2428 403 3163 
Q 403 3881 828 4315 
Q 1253 4750 1959 4750 
Q 2769 4750 3195 4129 
Q 3622 3509 3622 2328 
Q 3622 1225 3098 567 
Q 2575 -91 1691 -91 
Q 1453 -91 1209 -44 
Q 966 3 703 97 
z
M 1959 2075 
Q 2384 2075 2632 2365 
Q 2881 2656 2881 3163 
Q 2881 3666 2632 3958 
Q 2384 4250 1959 4250 
Q 1534 4250 1286 3958 
Q 1038 3666 1038 3163 
Q 1038 2656 1286 2365 
Q 1534 2075 1959 2075 
z
" transform="scale(0.015625)"/>
       </defs>
       <use xlink:href="#DejaVuSans-39"/>
       <use xlink:href="#DejaVuSans-30" transform="translate(63.623047 0)"/>
      </g>
     </g>
    </g>
    <g id="text_10">
     <!-- Количество пересечений -->
     <g transform="translate(169.598281 335.860562) scale(0.1 -0.1)">
      <defs>
       <path id="DejaVuSans-41a" d="M 628 4666 
L 1259 4666 
L 1259 2359 
L 3516 4666 
L 4325 4666 
L 2522 2822 
L 4419 0 
L 3731 0 
L 2113 2403 
L 1259 1531 
L 1259 0 
L 628 0 
L 628 4666 
z
" transform="scale(0.015625)"/>
       <path id="DejaVuSans-43e" d="M 1959 3097 
Q 1497 3097 1228 2736 
Q 959 2375 959 1747 
Q 959 1119 1226 758 
Q 1494 397 1959 397 
Q 2419 397 2687 759 
Q 2956 1122 2956 1747 
Q 2956 2369 2687 2733 
Q 2419 3097 1959 3097 
z
M 1959 3584 
Q 2709 3584 3137 3096 
Q 3566 2609 3566 1747 
Q 3566 888 3137 398 
Q 2709 -91 1959 -91 
Q 1206 -91 779 398 
Q 353 888 353 1747 
Q 353 2609 779 3096 
Q 1206 3584 1959 3584 
z
" transform="scale(0.015625)"/>
       <path id="DejaVuSans-43b" d="M 238 0 
L 238 478 
Q 806 566 981 959 
Q 1194 1513 1194 2928 
L 1194 3500 
L 3559 3500 
L 3559 0 
L 2984 0 
L 2984 3041 
L 1769 3041 
L 1769 2694 
Q 1769 1344 1494 738 
Q 1200 91 238 0 
z
" transform="scale(0.015625)"/>
       <path id="DejaVuSans-438" d="M 3578 3500 
L 3578 0 
L 3006 0 
L 3006 2809 
L 1319 0 
L 581 0 
L 581 3500 
L 1153 3500 
L 1153 697 
L 2838 3500 
L 3578 3500 
z
" transform="scale(0.015625)"/>
       <path id="DejaVuSans-447" d="M 2625 0 
L 2625 1472 
L 1553 1472 
Q 1075 1472 756 1769 
Q 469 2038 469 2613 
L 469 3500 
L 1044 3500 
L 1044 2666 
Q 1044 2300 1206 2116 
Q 1372 1931 1697 1931 
L 2625 1931 
L 2625 3500 
L 3200 3500 
L 3200 0 
L 2625 0 
z
" transform="scale(0.015625)"/>
       <path id="DejaVuSans-435" d="M 3597 1894 
L 3597 1613 
L 953 1613 
Q 991 1019 1311 708 
Q 1631 397 2203 397 
Q 2534 397 2845 478 
Q 3156 559 3463 722 
L 3463 178 
Q 3153 47 2828 -22 
Q 2503 -91 2169 -91 
Q 1331 -91 842 396 
Q 353 884 353 1716 
Q 353 2575 817 3079 
Q 1281 3584 2069 3584 
Q 2775 3584 3186 3129 
Q 3597 2675 3597 1894 
z
M 3022 2063 
Q 3016 2534 2758 2815 
Q 2500 3097 2075 3097 
Q 1594 3097 1305 2825 
Q 1016 2553 972 2059 
L 3022 2063 
z
" transform="scale(0.015625)"/>
       <path id="DejaVuSans-441" d="M 3122 3366 
L 3122 2828 
Q 2878 2963 2633 3030 
Q 2388 3097 2138 3097 
Q 1578 3097 1268 2742 
Q 959 2388 959 1747 
Q 959 1106 1268 751 
Q 1578 397 2138 397 
Q 2388 397 2633 464 
Q 2878 531 3122 666 
L 3122 134 
Q 2881 22 2623 -34 
Q 2366 -91 2075 -91 
Q 1284 -91 818 406 
Q 353 903 353 1747 
Q 353 2603 823 3093 
Q 1294 3584 2113 3584 
Q 2378 3584 2631 3529 
Q 2884 3475 3122 3366 
z
" transform="scale(0.015625)"/>
       <path id="DejaVuSans-442" d="M 188 3500 
L 3541 3500 
L 3541 3041 
L 2147 3041 
L 2147 0 
L 1581 0 
L 1581 3041 
L 188 3041 
L 188 3500 
z
" transform="scale(0.015625)"/>
       <path id="DejaVuSans-432" d="M 1156 1613 
L 1156 459 
L 1975 459 
Q 2369 459 2575 607 
Q 2781 756 2781 1038 
Q 2781 1319 2575 1466 
Q 2369 1613 1975 1613 
L 1156 1613 
z
M 1156 3041 
L 1156 2072 
L 1913 2072 
Q 2238 2072 2444 2201 
Q 2650 2331 2650 2563 
Q 2650 2794 2444 2917 
Q 2238 3041 1913 3041 
L 1156 3041 
z
M 581 3500 
L 1950 3500 
Q 2566 3500 2897 3275 
Q 3228 3050 3228 2634 
Q 3228 2313 3059 2123 
Q 2891 1934 2559 1888 
Q 2956 1813 3175 1575 
Q 3394 1338 3394 981 
Q 3394 513 3033 256 
Q 2672 0 2003 0 
L 581 0 
L 581 3500 
z
" transform="scale(0.015625)"/>
       <path id="DejaVuSans-20" transform="scale(0.015625)"/>
       <path id="DejaVuSans-43f" d="M 3603 3500 
L 3603 0 
L 3025 0 
L 3025 3041 
L 1159 3041 
L 1159 0 
L 581 0 
L 581 3500 
L 3603 3500 
z
" transform="scale(0.015625)"/>
       <path id="DejaVuSans-440" d="M 1159 525 
L 1159 -1331 
L 581 -1331 
L 581 3500 
L 1159 3500 
L 1159 2969 
Q 1341 3281 1617 3432 
Q 1894 3584 2278 3584 
Q 2916 3584 3314 3078 
Q 3713 2572 3713 1747 
Q 3713 922 3314 415 
Q 2916 -91 2278 -91 
Q 1894 -91 1617 61 
Q 1341 213 1159 525 
z
M 3116 1747 
Q 3116 2381 2855 2742 
Q 2594 3103 2138 3103 
Q 1681 3103 1420 2742 
Q 1159 2381 1159 1747 
Q 1159 1113 1420 752 
Q 1681 391 2138 391 
Q 2594 391 2855 752 
Q 3116 1113 3116 1747 
z
" transform="scale(0.015625)"/>
       <path id="DejaVuSans-43d" d="M 581 3500 
L 1159 3500 
L 1159 2072 
L 3025 2072 
L 3025 3500 
L 3603 3500 
L 3603 0 
L 3025 0 
L 3025 1613 
L 1159 1613 
L 1159 0 
L 581 0 
L 581 3500 
z
" transform="scale(0.015625)"/>
       <path id="DejaVuSans-439" d="M 3578 3500 
L 3578 0 
L 3006 0 
L 3006 2809 
L 1319 0 
L 581 0 
L 581 3500 
L 1153 3500 
L 1153 697 
L 2838 3500 
L 3578 3500 
z
M 1102 4833 
L 1471 4833 
Q 1505 4599 1656 4481 
Q 1808 4364 2080 4364 
Q 2349 4364 2499 4480 
Q 2649 4596 2689 4833 
L 3058 4833 
Q 3027 4386 2780 4161 
Q 2533 3936 2080 3936 
Q 1627 3936 1380 4161 
Q 1133 4386 1102 4833 
z
" transform="scale(0.015625)"/>
      </defs>
      <use xlink:href="#DejaVuSans-41a"/>
      <use xlink:href="#DejaVuSans-43e" transform="translate(70.996094 0)"/>
      <use xlink:href="#DejaVuSans-43b" transform="translate(132.177734 0)"/>
      <use xlink:href="#DejaVuSans-438" transform="translate(196.09375 0)"/>
      <use xlink:href="#DejaVuSans-447" transform="translate(261.083984 0)"/>
      <use xlink:href="#DejaVuSans-435" transform="translate(320.166016 0)"/>
      <use xlink:href="#DejaVuSans-441" transform="translate(381.689453 0)"/>
      <use xlink:href="#DejaVuSans-442" transform="translate(436.669922 0)"/>
      <use xlink:href="#DejaVuSans-432" transform="translate(494.921875 0)"/>
      <use xlink:href="#DejaVuSans-43e" transform="translate(553.857422 0)"/>
      <use xlink:href="#DejaVuSans-20" transform="translate(615.039062 0)"/>
      <use xlink:href="#DejaVuSans-43f" transform="translate(646.826172 0)"/>
      <use xlink:href="#DejaVuSans-435" transform="translate(712.207031 0)"/>
      <use xlink:href="#DejaVuSans-440" transform="translate(773.730469 0)"/>
      <use xlink:href="#DejaVuSans-435" transform="translate(837.207031 0)"/>
      <use xlink:href="#DejaVuSans-441" transform="translate(898.730469 0)"/>
      <use xlink:href="#DejaVuSans-435" transform="translate(953.710938 0)"/>
      <use xlink:href="#DejaVuSans-447" transform="translate(1015.234375 0)"/>
      <use xlink:href="#DejaVuSans-435" transform="translate(1074.316406 0)"/>
      <use xlink:href="#DejaVuSans-43d" transform="translate(1135.839844 0)"/>
      <use xlink:href="#DejaVuSans-438" transform="translate(1201.220703 0)"/>
      <use xlink:href="#DejaVuSans-439" transform="translate(1266.210938 0)"/>
     </g>
    </g>
   </g>
   <g id="matplotlib.axis_2">
    <g id="ytick_1">
     <g id="line2d_19">
      <path d="M 57.6 290.905497 
L 414.72 290.905497 
" clip-path="url(#p8e9287a100)" style="fill: none; stroke: #b0b0b0; stroke-width: 0.8; stroke-linecap: square"/>
     </g>
     <g id="line2d_20">
      <defs>
       <path id="m3389abd0a1" d="M 0 0 
L -3.5 0 
" style="stroke: #000000; stroke-width: 0.8"/>
      </defs>
      <g>
       <use xlink:href="#m3389abd0a1" x="57.6" y="290.905497" style="stroke: #000000; stroke-width: 0.8"/>
      </g>
     </g>
     <g id="text_11">
      <!-- 0.050 -->
      <g transform="translate(21.971875 294.704716) scale(0.1 -0.1)">
       <defs>
        <path id="DejaVuSans-2e" d="M 684 794 
L 1344 794 
L 1344 0 
L 684 0 
L 684 794 
z
" transform="scale(0.015625)"/>
       </defs>
       <use xlink:href="#DejaVuSans-30"/>
       <use xlink:href="#DejaVuSans-2e" transform="translate(63.623047 0)"/>
       <use xlink:href="#DejaVuSans-30" transform="translate(95.410156 0)"/>
       <use xlink:href="#DejaVuSans-35" transform="translate(159.033203 0)"/>
       <use xlink:href="#DejaVuSans-30" transform="translate(222.65625 0)"/>
      </g>
     </g>
    </g>
    <g id="ytick_2">
     <g id="line2d_21">
      <path d="M 57.6 260.315724 
L 414.72 260.315724 
" clip-path="url(#p8e9287a100)" style="fill: none; stroke: #b0b0b0; stroke-width: 0.8; stroke-linecap: square"/>
     </g>
     <g id="line2d_22">
      <g>
       <use xlink:href="#m3389abd0a1" x="57.6" y="260.315724" style="stroke: #000000; stroke-width: 0.8"/>
      </g>
     </g>
     <g id="text_12">
      <!-- 0.075 -->
      <g transform="translate(21.971875 264.114943) scale(0.1 -0.1)">
       <use xlink:href="#DejaVuSans-30"/>
       <use xlink:href="#DejaVuSans-2e" transform="translate(63.623047 0)"/>
       <use xlink:href="#DejaVuSans-30" transform="translate(95.410156 0)"/>
       <use xlink:href="#DejaVuSans-37" transform="translate(159.033203 0)"/>
       <use xlink:href="#DejaVuSans-35" transform="translate(222.65625 0)"/>
      </g>
     </g>
    </g>
    <g id="ytick_3">
     <g id="line2d_23">
      <path d="M 57.6 229.725951 
L 414.72 229.725951 
" clip-path="url(#p8e9287a100)" style="fill: none; stroke: #b0b0b0; stroke-width: 0.8; stroke-linecap: square"/>
     </g>
     <g id="line2d_24">
      <g>
       <use xlink:href="#m3389abd0a1" x="57.6" y="229.725951" style="stroke: #000000; stroke-width: 0.8"/>
      </g>
     </g>
     <g id="text_13">
      <!-- 0.100 -->
      <g transform="translate(21.971875 233.525169) scale(0.1 -0.1)">
       <use xlink:href="#DejaVuSans-30"/>
       <use xlink:href="#DejaVuSans-2e" transform="translate(63.623047 0)"/>
       <use xlink:href="#DejaVuSans-31" transform="translate(95.410156 0)"/>
       <use xlink:href="#DejaVuSans-30" transform="translate(159.033203 0)"/>
       <use xlink:href="#DejaVuSans-30" transform="translate(222.65625 0)"/>
      </g>
     </g>
    </g>
    <g id="ytick_4">
     <g id="line2d_25">
      <path d="M 57.6 199.136177 
L 414.72 199.136177 
" clip-path="url(#p8e9287a100)" style="fill: none; stroke: #b0b0b0; stroke-width: 0.8; stroke-linecap: square"/>
     </g>
     <g id="line2d_26">
      <g>
       <use xlink:href="#m3389abd0a1" x="57.6" y="199.136177" style="stroke: #000000; stroke-width: 0.8"/>
      </g>
     </g>
     <g id="text_14">
      <!-- 0.125 -->
      <g transform="translate(21.971875 202.935396) scale(0.1 -0.1)">
       <use xlink:href="#DejaVuSans-30"/>
       <use xlink:href="#DejaVuSans-2e" transform="translate(63.623047 0)"/>
       <use xlink:href="#DejaVuSans-31" transform="translate(95.410156 0)"/>
       <use xlink:href="#DejaVuSans-32" transform="translate(159.033203 0)"/>
       <use xlink:href="#DejaVuSans-35" transform="translate(222.65625 0)"/>
      </g>
     </g>
    </g>
    <g id="ytick_5">
     <g id="line2d_27">
      <path d="M 57.6 168.546404 
L 414.72 168.546404 
" clip-path="url(#p8e9287a100)" style="fill: none; stroke: #b0b0b0; stroke-width: 0.8; stroke-linecap: square"/>
     </g>
     <g id="line2d_28">
      <g>
       <use xlink:href="#m3389abd0a1" x="57.6" y="168.546404" style="stroke: #000000; stroke-width: 0.8"/>
      </g>
     </g>
     <g id="text_15">
      <!-- 0.150 -->
      <g transform="translate(21.971875 172.345623) scale(0.1 -0.1)">
       <use xlink:href="#DejaVuSans-30"/>
       <use xlink:href="#DejaVuSans-2e" transform="translate(63.623047 0)"/>
       <use xlink:href="#DejaVuSans-31" transform="translate(95.410156 0)"/>
       <use xlink:href="#DejaVuSans-35" transform="translate(159.033203 0)"/>
       <use xlink:href="#DejaVuSans-30" transform="translate(222.65625 0)"/>
      </g>
     </g>
    </g>
    <g id="ytick_6">
     <g id="line2d_29">
      <path d="M 57.6 137.956631 
L 414.72 137.956631 
" clip-path="url(#p8e9287a100)" style="fill: none; stroke: #b0b0b0; stroke-width: 0.8; stroke-linecap: square"/>
     </g>
     <g id="line2d_30">
      <g>
       <use xlink:href="#m3389abd0a1" x="57.6" y="137.956631" style="stroke: #000000; stroke-width: 0.8"/>
      </g>
     </g>
     <g id="text_16">
      <!-- 0.175 -->
      <g transform="translate(21.971875 141.75585) scale(0.1 -0.1)">
       <use xlink:href="#DejaVuSans-30"/>
       <use xlink:href="#DejaVuSans-2e" transform="translate(63.623047 0)"/>
       <use xlink:href="#DejaVuSans-31" transform="translate(95.410156 0)"/>
       <use xlink:href="#DejaVuSans-37" transform="translate(159.033203 0)"/>
       <use xlink:href="#DejaVuSans-35" transform="translate(222.65625 0)"/>
      </g>
     </g>
    </g>
    <g id="ytick_7">
     <g id="line2d_31">
      <path d="M 57.6 107.366858 
L 414.72 107.366858 
" clip-path="url(#p8e9287a100)" style="fill: none; stroke: #b0b0b0; stroke-width: 0.8; stroke-linecap: square"/>
     </g>
     <g id="line2d_32">
      <g>
       <use xlink:href="#m3389abd0a1" x="57.6" y="107.366858" style="stroke: #000000; stroke-width: 0.8"/>
      </g>
     </g>
     <g id="text_17">
      <!-- 0.200 -->
      <g transform="translate(21.971875 111.166077) scale(0.1 -0.1)">
       <use xlink:href="#DejaVuSans-30"/>
       <use xlink:href="#DejaVuSans-2e" transform="translate(63.623047 0)"/>
       <use xlink:href="#DejaVuSans-32" transform="translate(95.410156 0)"/>
       <use xlink:href="#DejaVuSans-30" transform="translate(159.033203 0)"/>
       <use xlink:href="#DejaVuSans-30" transform="translate(222.65625 0)"/>
      </g>
     </g>
    </g>
    <g id="ytick_8">
     <g id="line2d_33">
      <path d="M 57.6 76.777085 
L 414.72 76.777085 
" clip-path="url(#p8e9287a100)" style="fill: none; stroke: #b0b0b0; stroke-width: 0.8; stroke-linecap: square"/>
     </g>
     <g id="line2d_34">
      <g>
       <use xlink:href="#m3389abd0a1" x="57.6" y="76.777085" style="stroke: #000000; stroke-width: 0.8"/>
      </g>
     </g>
     <g id="text_18">
      <!-- 0.225 -->
      <g transform="translate(21.971875 80.576304) scale(0.1 -0.1)">
       <use xlink:href="#DejaVuSans-30"/>
       <use xlink:href="#DejaVuSans-2e" transform="translate(63.623047 0)"/>
       <use xlink:href="#DejaVuSans-32" transform="translate(95.410156 0)"/>
       <use xlink:href="#DejaVuSans-32" transform="translate(159.033203 0)"/>
       <use xlink:href="#DejaVuSans-35" transform="translate(222.65625 0)"/>
      </g>
     </g>
    </g>
    <g id="ytick_9">
     <g id="line2d_35">
      <path d="M 57.6 46.187312 
L 414.72 46.187312 
" clip-path="url(#p8e9287a100)" style="fill: none; stroke: #b0b0b0; stroke-width: 0.8; stroke-linecap: square"/>
     </g>
     <g id="line2d_36">
      <g>
       <use xlink:href="#m3389abd0a1" x="57.6" y="46.187312" style="stroke: #000000; stroke-width: 0.8"/>
      </g>
     </g>
     <g id="text_19">
      <!-- 0.250 -->
      <g transform="translate(21.971875 49.98653) scale(0.1 -0.1)">
       <use xlink:href="#DejaVuSans-30"/>
       <use xlink:href="#DejaVuSans-2e" transform="translate(63.623047 0)"/>
       <use xlink:href="#DejaVuSans-32" transform="translate(95.410156 0)"/>
       <use xlink:href="#DejaVuSans-35" transform="translate(159.033203 0)"/>
       <use xlink:href="#DejaVuSans-30" transform="translate(222.65625 0)"/>
      </g>
     </g>
    </g>
    <g id="text_20">
     <!-- Время, с -->
     <g transform="translate(15.892187 196.916281) rotate(-90) scale(0.1 -0.1)">
      <defs>
       <path id="DejaVuSans-412" d="M 1259 2228 
L 1259 519 
L 2272 519 
Q 2781 519 3026 730 
Q 3272 941 3272 1375 
Q 3272 1813 3026 2020 
Q 2781 2228 2272 2228 
L 1259 2228 
z
M 1259 4147 
L 1259 2741 
L 2194 2741 
Q 2656 2741 2882 2914 
Q 3109 3088 3109 3444 
Q 3109 3797 2882 3972 
Q 2656 4147 2194 4147 
L 1259 4147 
z
M 628 4666 
L 2241 4666 
Q 2963 4666 3353 4366 
Q 3744 4066 3744 3513 
Q 3744 3084 3544 2831 
Q 3344 2578 2956 2516 
Q 3422 2416 3680 2098 
Q 3938 1781 3938 1306 
Q 3938 681 3513 340 
Q 3088 0 2303 0 
L 628 0 
L 628 4666 
z
" transform="scale(0.015625)"/>
       <path id="DejaVuSans-43c" d="M 581 3500 
L 1422 3500 
L 2416 1156 
L 3413 3500 
L 4247 3500 
L 4247 0 
L 3669 0 
L 3669 2950 
L 2703 672 
L 2128 672 
L 1159 2950 
L 1159 0 
L 581 0 
L 581 3500 
z
" transform="scale(0.015625)"/>
       <path id="DejaVuSans-44f" d="M 1181 2491 
Q 1181 2231 1381 2084 
Q 1581 1938 1953 1938 
L 2728 1938 
L 2728 3041 
L 1953 3041 
Q 1581 3041 1381 2897 
Q 1181 2753 1181 2491 
z
M 363 0 
L 1431 1534 
Q 1069 1616 828 1830 
Q 588 2044 588 2491 
Q 588 2997 923 3248 
Q 1259 3500 1938 3500 
L 3306 3500 
L 3306 0 
L 2728 0 
L 2728 1478 
L 2013 1478 
L 981 0 
L 363 0 
z
" transform="scale(0.015625)"/>
       <path id="DejaVuSans-2c" d="M 750 794 
L 1409 794 
L 1409 256 
L 897 -744 
L 494 -744 
L 750 256 
L 750 794 
z
" transform="scale(0.015625)"/>
      </defs>
      <use xlink:href="#DejaVuSans-412"/>
      <use xlink:href="#DejaVuSans-440" transform="translate(68.603516 0)"/>
      <use xlink:href="#DejaVuSans-435" transform="translate(132.080078 0)"/>
      <use xlink:href="#DejaVuSans-43c" transform="translate(193.603516 0)"/>
      <use xlink:href="#DejaVuSans-44f" transform="translate(269.042969 0)"/>
      <use xlink:href="#DejaVuSans-2c" transform="translate(329.199219 0)"/>
      <use xlink:href="#DejaVuSans-20" transform="translate(360.986328 0)"/>
      <use xlink:href="#DejaVuSans-441" transform="translate(392.773438 0)"/>
     </g>
    </g>
   </g>
   <g id="line2d_37">
    <path d="M 73.832727 53.568 
L 77.091888 82.717635 
L 80.460665 119.863209 
L 83.922831 145.586804 
L 87.46488 171.266348 
L 91.075558 194.03971 
L 94.745466 205.980964 
L 98.466729 218.215694 
L 102.232726 214.471381 
L 106.037865 236.283211 
L 109.877403 239.468284 
L 113.747302 245.653476 
L 117.644105 250.003414 
L 121.564843 249.832171 
L 125.506952 257.134385 
L 129.468213 261.34196 
L 133.446692 261.56484 
L 137.440703 264.92845 
L 141.448766 280.301869 
L 145.469579 268.868804 
L 149.501994 270.826291 
L 153.544992 271.348773 
L 157.597669 273.661 
L 161.65922 274.049288 
L 165.728923 273.887672 
L 169.806133 275.988397 
L 173.89027 275.745096 
L 177.980811 276.446116 
L 182.077283 275.659912 
L 186.17926 278.69037 
L 190.286352 281.695448 
L 194.398209 276.333801 
L 198.514508 281.251148 
L 202.634955 280.840397 
L 206.759283 277.591727 
L 210.887246 280.832812 
L 215.018618 281.520704 
L 219.15319 280.58076 
L 223.290773 283.202801 
L 227.431189 278.700289 
L 231.574276 281.780049 
L 235.719882 282.278902 
L 239.867868 295.488 
L 244.018105 281.444563 
L 248.170471 284.905027 
L 252.324855 284.964831 
L 256.481152 281.727246 
L 260.639265 285.712526 
L 264.799103 283.06248 
L 268.960581 281.027394 
L 273.12362 283.074733 
L 277.288144 284.797671 
L 281.454084 283.332911 
L 285.621375 288.745902 
L 289.789955 284.688273 
L 293.959766 286.141948 
L 298.130753 287.146947 
L 302.302866 286.323402 
L 306.476055 284.033639 
L 310.650275 284.796212 
L 314.825484 283.989588 
L 319.001639 284.706944 
L 323.178703 284.261477 
L 327.356638 289.62575 
L 331.535411 283.580587 
L 335.714989 283.821845 
L 339.89534 287.552739 
L 344.076435 286.647511 
L 348.258246 284.444973 
L 352.440747 286.090604 
L 356.623911 285.985874 
L 360.807714 286.245803 
L 364.992135 286.146908 
L 369.17715 284.627594 
L 373.362739 285.466601 
L 377.548882 282.178839 
L 381.735561 286.207003 
L 385.922756 285.734406 
L 390.11045 285.093482 
L 394.298628 284.393338 
L 398.487273 285.943866 
" clip-path="url(#p8e9287a100)" style="fill: none; stroke: #0000ff; stroke-width: 1.5; stroke-linecap: square"/>
    <defs>
     <path id="m40284186a5" d="M 0 1.5 
C 0.397805 1.5 0.77937 1.341951 1.06066 1.06066 
C 1.341951 0.77937 1.5 0.397805 1.5 0 
C 1.5 -0.397805 1.341951 -0.77937 1.06066 -1.06066 
C 0.77937 -1.341951 0.397805 -1.5 0 -1.5 
C -0.397805 -1.5 -0.77937 -1.341951 -1.06066 -1.06066 
C -1.341951 -0.77937 -1.5 -0.397805 -1.5 0 
C -1.5 0.397805 -1.341951 0.77937 -1.06066 1.06066 
C -0.77937 1.341951 -0.397805 1.5 0 1.5 
z
" style="stroke: #0000ff"/>
    </defs>
    <g clip-path="url(#p8e9287a100)">
     <use xlink:href="#m40284186a5" x="73.832727" y="53.568" style="fill: #0000ff; stroke: #0000ff"/>
     <use xlink:href="#m40284186a5" x="77.091888" y="82.717635" style="fill: #0000ff; stroke: #0000ff"/>
     <use xlink:href="#m40284186a5" x="80.460665" y="119.863209" style="fill: #0000ff; stroke: #0000ff"/>
     <use xlink:href="#m40284186a5" x="83.922831" y="145.586804" style="fill: #0000ff; stroke: #0000ff"/>
     <use xlink:href="#m40284186a5" x="87.46488" y="171.266348" style="fill: #0000ff; stroke: #0000ff"/>
     <use xlink:href="#m40284186a5" x="91.075558" y="194.03971" style="fill: #0000ff; stroke: #0000ff"/>
     <use xlink:href="#m40284186a5" x="94.745466" y="205.980964" style="fill: #0000ff; stroke: #0000ff"/>
     <use xlink:href="#m40284186a5" x="98.466729" y="218.215694" style="fill: #0000ff; stroke: #0000ff"/>
     <use xlink:href="#m40284186a5" x="102.232726" y="214.471381" style="fill: #0000ff; stroke: #0000ff"/>
     <use xlink:href="#m40284186a5" x="106.037865" y="236.283211" style="fill: #0000ff; stroke: #0000ff"/>
     <use xlink:href="#m40284186a5" x="109.877403" y="239.468284" style="fill: #0000ff; stroke: #0000ff"/>
     <use xlink:href="#m40284186a5" x="113.747302" y="245.653476" style="fill: #0000ff; stroke: #0000ff"/>
     <use xlink:href="#m40284186a5" x="117.644105" y="250.003414" style="fill: #0000ff; stroke: #0000ff"/>
     <use xlink:href="#m40284186a5" x="121.564843" y="249.832171" style="fill: #0000ff; stroke: #0000ff"/>
     <use xlink:href="#m40284186a5" x="125.506952" y="257.134385" style="fill: #0000ff; stroke: #0000ff"/>
     <use xlink:href="#m40284186a5" x="129.468213" y="261.34196" style="fill: #0000ff; stroke: #0000ff"/>
     <use xlink:href="#m40284186a5" x="133.446692" y="261.56484" style="fill: #0000ff; stroke: #0000ff"/>
     <use xlink:href="#m40284186a5" x="137.440703" y="264.92845" style="fill: #0000ff; stroke: #0000ff"/>
     <use xlink:href="#m40284186a5" x="141.448766" y="280.301869" style="fill: #0000ff; stroke: #0000ff"/>
     <use xlink:href="#m40284186a5" x="145.469579" y="268.868804" style="fill: #0000ff; stroke: #0000ff"/>
     <use xlink:href="#m40284186a5" x="149.501994" y="270.826291" style="fill: #0000ff; stroke: #0000ff"/>
     <use xlink:href="#m40284186a5" x="153.544992" y="271.348773" style="fill: #0000ff; stroke: #0000ff"/>
     <use xlink:href="#m40284186a5" x="157.597669" y="273.661" style="fill: #0000ff; stroke: #0000ff"/>
     <use xlink:href="#m40284186a5" x="161.65922" y="274.049288" style="fill: #0000ff; stroke: #0000ff"/>
     <use xlink:href="#m40284186a5" x="165.728923" y="273.887672" style="fill: #0000ff; stroke: #0000ff"/>
     <use xlink:href="#m40284186a5" x="169.806133" y="275.988397" style="fill: #0000ff; stroke: #0000ff"/>
     <use xlink:href="#m40284186a5" x="173.89027" y="275.745096" style="fill: #0000ff; stroke: #0000ff"/>
     <use xlink:href="#m40284186a5" x="177.980811" y="276.446116" style="fill: #0000ff; stroke: #0000ff"/>
     <use xlink:href="#m40284186a5" x="182.077283" y="275.659912" style="fill: #0000ff; stroke: #0000ff"/>
     <use xlink:href="#m40284186a5" x="186.17926" y="278.69037" style="fill: #0000ff; stroke: #0000ff"/>
     <use xlink:href="#m40284186a5" x="190.286352" y="281.695448" style="fill: #0000ff; stroke: #0000ff"/>
     <use xlink:href="#m40284186a5" x="194.398209" y="276.333801" style="fill: #0000ff; stroke: #0000ff"/>
     <use xlink:href="#m40284186a5" x="198.514508" y="281.251148" style="fill: #0000ff; stroke: #0000ff"/>
     <use xlink:href="#m40284186a5" x="202.634955" y="280.840397" style="fill: #0000ff; stroke: #0000ff"/>
     <use xlink:href="#m40284186a5" x="206.759283" y="277.591727" style="fill: #0000ff; stroke: #0000ff"/>
     <use xlink:href="#m40284186a5" x="210.887246" y="280.832812" style="fill: #0000ff; stroke: #0000ff"/>
     <use xlink:href="#m40284186a5" x="215.018618" y="281.520704" style="fill: #0000ff; stroke: #0000ff"/>
     <use xlink:href="#m40284186a5" x="219.15319" y="280.58076" style="fill: #0000ff; stroke: #0000ff"/>
     <use xlink:href="#m40284186a5" x="223.290773" y="283.202801" style="fill: #0000ff; stroke: #0000ff"/>
     <use xlink:href="#m40284186a5" x="227.431189" y="278.700289" style="fill: #0000ff; stroke: #0000ff"/>
     <use xlink:href="#m40284186a5" x="231.574276" y="281.780049" style="fill: #0000ff; stroke: #0000ff"/>
     <use xlink:href="#m40284186a5" x="235.719882" y="282.278902" style="fill: #0000ff; stroke: #0000ff"/>
     <use xlink:href="#m40284186a5" x="239.867868" y="295.488" style="fill: #0000ff; stroke: #0000ff"/>
     <use xlink:href="#m40284186a5" x="244.018105" y="281.444563" style="fill: #0000ff; stroke: #0000ff"/>
     <use xlink:href="#m40284186a5" x="248.170471" y="284.905027" style="fill: #0000ff; stroke: #0000ff"/>
     <use xlink:href="#m40284186a5" x="252.324855" y="284.964831" style="fill: #0000ff; stroke: #0000ff"/>
     <use xlink:href="#m40284186a5" x="256.481152" y="281.727246" style="fill: #0000ff; stroke: #0000ff"/>
     <use xlink:href="#m40284186a5" x="260.639265" y="285.712526" style="fill: #0000ff; stroke: #0000ff"/>
     <use xlink:href="#m40284186a5" x="264.799103" y="283.06248" style="fill: #0000ff; stroke: #0000ff"/>
     <use xlink:href="#m40284186a5" x="268.960581" y="281.027394" style="fill: #0000ff; stroke: #0000ff"/>
     <use xlink:href="#m40284186a5" x="273.12362" y="283.074733" style="fill: #0000ff; stroke: #0000ff"/>
     <use xlink:href="#m40284186a5" x="277.288144" y="284.797671" style="fill: #0000ff; stroke: #0000ff"/>
     <use xlink:href="#m40284186a5" x="281.454084" y="283.332911" style="fill: #0000ff; stroke: #0000ff"/>
     <use xlink:href="#m40284186a5" x="285.621375" y="288.745902" style="fill: #0000ff; stroke: #0000ff"/>
     <use xlink:href="#m40284186a5" x="289.789955" y="284.688273" style="fill: #0000ff; stroke: #0000ff"/>
     <use xlink:href="#m40284186a5" x="293.959766" y="286.141948" style="fill: #0000ff; stroke: #0000ff"/>
     <use xlink:href="#m40284186a5" x="298.130753" y="287.146947" style="fill: #0000ff; stroke: #0000ff"/>
     <use xlink:href="#m40284186a5" x="302.302866" y="286.323402" style="fill: #0000ff; stroke: #0000ff"/>
     <use xlink:href="#m40284186a5" x="306.476055" y="284.033639" style="fill: #0000ff; stroke: #0000ff"/>
     <use xlink:href="#m40284186a5" x="310.650275" y="284.796212" style="fill: #0000ff; stroke: #0000ff"/>
     <use xlink:href="#m40284186a5" x="314.825484" y="283.989588" style="fill: #0000ff; stroke: #0000ff"/>
     <use xlink:href="#m40284186a5" x="319.001639" y="284.706944" style="fill: #0000ff; stroke: #0000ff"/>
     <use xlink:href="#m40284186a5" x="323.178703" y="284.261477" style="fill: #0000ff; stroke: #0000ff"/>
     <use xlink:href="#m40284186a5" x="327.356638" y="289.62575" style="fill: #0000ff; stroke: #0000ff"/>
     <use xlink:href="#m40284186a5" x="331.535411" y="283.580587" style="fill: #0000ff; stroke: #0000ff"/>
     <use xlink:href="#m40284186a5" x="335.714989" y="283.821845" style="fill: #0000ff; stroke: #0000ff"/>
     <use xlink:href="#m40284186a5" x="339.89534" y="287.552739" style="fill: #0000ff; stroke: #0000ff"/>
     <use xlink:href="#m40284186a5" x="344.076435" y="286.647511" style="fill: #0000ff; stroke: #0000ff"/>
     <use xlink:href="#m40284186a5" x="348.258246" y="284.444973" style="fill: #0000ff; stroke: #0000ff"/>
     <use xlink:href="#m40284186a5" x="352.440747" y="286.090604" style="fill: #0000ff; stroke: #0000ff"/>
     <use xlink:href="#m40284186a5" x="356.623911" y="285.985874" style="fill: #0000ff; stroke: #0000ff"/>
     <use xlink:href="#m40284186a5" x="360.807714" y="286.245803" style="fill: #0000ff; stroke: #0000ff"/>
     <use xlink:href="#m40284186a5" x="364.992135" y="286.146908" style="fill: #0000ff; stroke: #0000ff"/>
     <use xlink:href="#m40284186a5" x="369.17715" y="284.627594" style="fill: #0000ff; stroke: #0000ff"/>
     <use xlink:href="#m40284186a5" x="373.362739" y="285.466601" style="fill: #0000ff; stroke: #0000ff"/>
     <use xlink:href="#m40284186a5" x="377.548882" y="282.178839" style="fill: #0000ff; stroke: #0000ff"/>
     <use xlink:href="#m40284186a5" x="381.735561" y="286.207003" style="fill: #0000ff; stroke: #0000ff"/>
     <use xlink:href="#m40284186a5" x="385.922756" y="285.734406" style="fill: #0000ff; stroke: #0000ff"/>
     <use xlink:href="#m40284186a5" x="390.11045" y="285.093482" style="fill: #0000ff; stroke: #0000ff"/>
     <use xlink:href="#m40284186a5" x="394.298628" y="284.393338" style="fill: #0000ff; stroke: #0000ff"/>
     <use xlink:href="#m40284186a5" x="398.487273" y="285.943866" style="fill: #0000ff; stroke: #0000ff"/>
    </g>
   </g>
   <g id="patch_3">
    <path d="M 57.6 307.584 
L 57.6 41.472 
" style="fill: none; stroke: #000000; stroke-width: 0.8; stroke-linejoin: miter; stroke-linecap: square"/>
   </g>
   <g id="patch_4">
    <path d="M 414.72 307.584 
L 414.72 41.472 
" style="fill: none; stroke: #000000; stroke-width: 0.8; stroke-linejoin: miter; stroke-linecap: square"/>
   </g>
   <g id="patch_5">
    <path d="M 57.6 307.584 
L 414.72 307.584 
" style="fill: none; stroke: #000000; stroke-width: 0.8; stroke-linejoin: miter; stroke-linecap: square"/>
   </g>
   <g id="patch_6">
    <path d="M 57.6 41.472 
L 414.72 41.472 
" style="fill: none; stroke: #000000; stroke-width: 0.8; stroke-linejoin: miter; stroke-linecap: square"/>
   </g>
  </g>
 </g>
 <defs>
  <clipPath id="p8e9287a100">
   <rect x="57.6" y="41.472" width="357.12" height="266.112"/>
  </clipPath>
 </defs>
</svg>
