<?xml version="1.0" encoding="utf-8" standalone="no"?>
<!DOCTYPE svg PUBLIC "-//W3C//DTD SVG 1.1//EN"
  "http://www.w3.org/Graphics/SVG/1.1/DTD/svg11.dtd">
<svg xmlns:xlink="http://www.w3.org/1999/xlink" width="460.8pt" height="345.6pt" viewBox="0 0 460.8 345.6" xmlns="http://www.w3.org/2000/svg" version="1.1">
 <metadata>
  <rdf:RDF xmlns:dc="http://purl.org/dc/elements/1.1/" xmlns:cc="http://creativecommons.org/ns#" xmlns:rdf="http://www.w3.org/1999/02/22-rdf-syntax-ns#">
   <cc:Work>
    <dc:type rdf:resource="http://purl.org/dc/dcmitype/StillImage"/>
    <dc:date>2024-11-29T12:15:36.656184</dc:date>
    <dc:format>image/svg+xml</dc:format>
    <dc:creator>
     <cc:Agent>
      <dc:title>Matplotlib v3.9.2, https://matplotlib.org/</dc:title>
     </cc:Agent>
    </dc:creator>
   </cc:Work>
  </rdf:RDF>
 </metadata>
 <defs>
  <style type="text/css">*{stroke-linejoin: round; stroke-linecap: butt}</style>
 </defs>
 <g id="figure_1">
  <g id="patch_1">
   <path d="M 0 345.6 
L 460.8 345.6 
L 460.8 0 
L 0 0 
z
" style="fill: #ffffff"/>
  </g>
  <g id="axes_1">
   <g id="patch_2">
    <path d="M 57.6 307.584 
L 414.72 307.584 
L 414.72 41.472 
L 57.6 41.472 
z
" style="fill: #ffffff"/>
   </g>
   <g id="matplotlib.axis_1">
    <g id="xtick_1">
     <g id="line2d_1">
      <path d="M 62.637743 307.584 
L 62.637743 41.472 
" clip-path="url(#pf24da8e76b)" style="fill: none; stroke: #b0b0b0; stroke-width: 0.8; stroke-linecap: square"/>
     </g>
     <g id="line2d_2">
      <defs>
       <path id="m2617923e3a" d="M 0 0 
L 0 3.5 
" style="stroke: #000000; stroke-width: 0.8"/>
      </defs>
      <g>
       <use xlink:href="#m2617923e3a" x="62.637743" y="307.584" style="stroke: #000000; stroke-width: 0.8"/>
      </g>
     </g>
     <g id="text_1">
      <!-- 0 -->
      <g transform="translate(59.456493 322.182437) scale(0.1 -0.1)">
       <defs>
        <path id="DejaVuSans-30" d="M 2034 4250 
Q 1547 4250 1301 3770 
Q 1056 3291 1056 2328 
Q 1056 1369 1301 889 
Q 1547 409 2034 409 
Q 2525 409 2770 889 
Q 3016 1369 3016 2328 
Q 3016 3291 2770 3770 
Q 2525 4250 2034 4250 
z
M 2034 4750 
Q 2819 4750 3233 4129 
Q 3647 3509 3647 2328 
Q 3647 1150 3233 529 
Q 2819 -91 2034 -91 
Q 1250 -91 836 529 
Q 422 1150 422 2328 
Q 422 3509 836 4129 
Q 1250 4750 2034 4750 
z
" transform="scale(0.015625)"/>
       </defs>
       <use xlink:href="#DejaVuSans-30"/>
      </g>
     </g>
    </g>
    <g id="xtick_2">
     <g id="line2d_3">
      <path d="M 118.612665 307.584 
L 118.612665 41.472 
" clip-path="url(#pf24da8e76b)" style="fill: none; stroke: #b0b0b0; stroke-width: 0.8; stroke-linecap: square"/>
     </g>
     <g id="line2d_4">
      <g>
       <use xlink:href="#m2617923e3a" x="118.612665" y="307.584" style="stroke: #000000; stroke-width: 0.8"/>
      </g>
     </g>
     <g id="text_2">
      <!-- 50 -->
      <g transform="translate(112.250165 322.182437) scale(0.1 -0.1)">
       <defs>
        <path id="DejaVuSans-35" d="M 691 4666 
L 3169 4666 
L 3169 4134 
L 1269 4134 
L 1269 2991 
Q 1406 3038 1543 3061 
Q 1681 3084 1819 3084 
Q 2600 3084 3056 2656 
Q 3513 2228 3513 1497 
Q 3513 744 3044 326 
Q 2575 -91 1722 -91 
Q 1428 -91 1123 -41 
Q 819 9 494 109 
L 494 744 
Q 775 591 1075 516 
Q 1375 441 1709 441 
Q 2250 441 2565 725 
Q 2881 1009 2881 1497 
Q 2881 1984 2565 2268 
Q 2250 2553 1709 2553 
Q 1456 2553 1204 2497 
Q 953 2441 691 2322 
L 691 4666 
z
" transform="scale(0.015625)"/>
       </defs>
       <use xlink:href="#DejaVuSans-35"/>
       <use xlink:href="#DejaVuSans-30" x="63.623047"/>
      </g>
     </g>
    </g>
    <g id="xtick_3">
     <g id="line2d_5">
      <path d="M 174.587586 307.584 
L 174.587586 41.472 
" clip-path="url(#pf24da8e76b)" style="fill: none; stroke: #b0b0b0; stroke-width: 0.8; stroke-linecap: square"/>
     </g>
     <g id="line2d_6">
      <g>
       <use xlink:href="#m2617923e3a" x="174.587586" y="307.584" style="stroke: #000000; stroke-width: 0.8"/>
      </g>
     </g>
     <g id="text_3">
      <!-- 100 -->
      <g transform="translate(165.043836 322.182437) scale(0.1 -0.1)">
       <defs>
        <path id="DejaVuSans-31" d="M 794 531 
L 1825 531 
L 1825 4091 
L 703 3866 
L 703 4441 
L 1819 4666 
L 2450 4666 
L 2450 531 
L 3481 531 
L 3481 0 
L 794 0 
L 794 531 
z
" transform="scale(0.015625)"/>
       </defs>
       <use xlink:href="#DejaVuSans-31"/>
       <use xlink:href="#DejaVuSans-30" x="63.623047"/>
       <use xlink:href="#DejaVuSans-30" x="127.246094"/>
      </g>
     </g>
    </g>
    <g id="xtick_4">
     <g id="line2d_7">
      <path d="M 230.562508 307.584 
L 230.562508 41.472 
" clip-path="url(#pf24da8e76b)" style="fill: none; stroke: #b0b0b0; stroke-width: 0.8; stroke-linecap: square"/>
     </g>
     <g id="line2d_8">
      <g>
       <use xlink:href="#m2617923e3a" x="230.562508" y="307.584" style="stroke: #000000; stroke-width: 0.8"/>
      </g>
     </g>
     <g id="text_4">
      <!-- 150 -->
      <g transform="translate(221.018758 322.182437) scale(0.1 -0.1)">
       <use xlink:href="#DejaVuSans-31"/>
       <use xlink:href="#DejaVuSans-35" x="63.623047"/>
       <use xlink:href="#DejaVuSans-30" x="127.246094"/>
      </g>
     </g>
    </g>
    <g id="xtick_5">
     <g id="line2d_9">
      <path d="M 286.537429 307.584 
L 286.537429 41.472 
" clip-path="url(#pf24da8e76b)" style="fill: none; stroke: #b0b0b0; stroke-width: 0.8; stroke-linecap: square"/>
     </g>
     <g id="line2d_10">
      <g>
       <use xlink:href="#m2617923e3a" x="286.537429" y="307.584" style="stroke: #000000; stroke-width: 0.8"/>
      </g>
     </g>
     <g id="text_5">
      <!-- 200 -->
      <g transform="translate(276.993679 322.182437) scale(0.1 -0.1)">
       <defs>
        <path id="DejaVuSans-32" d="M 1228 531 
L 3431 531 
L 3431 0 
L 469 0 
L 469 531 
Q 828 903 1448 1529 
Q 2069 2156 2228 2338 
Q 2531 2678 2651 2914 
Q 2772 3150 2772 3378 
Q 2772 3750 2511 3984 
Q 2250 4219 1831 4219 
Q 1534 4219 1204 4116 
Q 875 4013 500 3803 
L 500 4441 
Q 881 4594 1212 4672 
Q 1544 4750 1819 4750 
Q 2544 4750 2975 4387 
Q 3406 4025 3406 3419 
Q 3406 3131 3298 2873 
Q 3191 2616 2906 2266 
Q 2828 2175 2409 1742 
Q 1991 1309 1228 531 
z
" transform="scale(0.015625)"/>
       </defs>
       <use xlink:href="#DejaVuSans-32"/>
       <use xlink:href="#DejaVuSans-30" x="63.623047"/>
       <use xlink:href="#DejaVuSans-30" x="127.246094"/>
      </g>
     </g>
    </g>
    <g id="xtick_6">
     <g id="line2d_11">
      <path d="M 342.512351 307.584 
L 342.512351 41.472 
" clip-path="url(#pf24da8e76b)" style="fill: none; stroke: #b0b0b0; stroke-width: 0.8; stroke-linecap: square"/>
     </g>
     <g id="line2d_12">
      <g>
       <use xlink:href="#m2617923e3a" x="342.512351" y="307.584" style="stroke: #000000; stroke-width: 0.8"/>
      </g>
     </g>
     <g id="text_6">
      <!-- 250 -->
      <g transform="translate(332.968601 322.182437) scale(0.1 -0.1)">
       <use xlink:href="#DejaVuSans-32"/>
       <use xlink:href="#DejaVuSans-35" x="63.623047"/>
       <use xlink:href="#DejaVuSans-30" x="127.246094"/>
      </g>
     </g>
    </g>
    <g id="xtick_7">
     <g id="line2d_13">
      <path d="M 398.487273 307.584 
L 398.487273 41.472 
" clip-path="url(#pf24da8e76b)" style="fill: none; stroke: #b0b0b0; stroke-width: 0.8; stroke-linecap: square"/>
     </g>
     <g id="line2d_14">
      <g>
       <use xlink:href="#m2617923e3a" x="398.487273" y="307.584" style="stroke: #000000; stroke-width: 0.8"/>
      </g>
     </g>
     <g id="text_7">
      <!-- 300 -->
      <g transform="translate(388.943523 322.182437) scale(0.1 -0.1)">
       <defs>
        <path id="DejaVuSans-33" d="M 2597 2516 
Q 3050 2419 3304 2112 
Q 3559 1806 3559 1356 
Q 3559 666 3084 287 
Q 2609 -91 1734 -91 
Q 1441 -91 1130 -33 
Q 819 25 488 141 
L 488 750 
Q 750 597 1062 519 
Q 1375 441 1716 441 
Q 2309 441 2620 675 
Q 2931 909 2931 1356 
Q 2931 1769 2642 2001 
Q 2353 2234 1838 2234 
L 1294 2234 
L 1294 2753 
L 1863 2753 
Q 2328 2753 2575 2939 
Q 2822 3125 2822 3475 
Q 2822 3834 2567 4026 
Q 2313 4219 1838 4219 
Q 1578 4219 1281 4162 
Q 984 4106 628 3988 
L 628 4550 
Q 988 4650 1302 4700 
Q 1616 4750 1894 4750 
Q 2613 4750 3031 4423 
Q 3450 4097 3450 3541 
Q 3450 3153 3228 2886 
Q 3006 2619 2597 2516 
z
" transform="scale(0.015625)"/>
       </defs>
       <use xlink:href="#DejaVuSans-33"/>
       <use xlink:href="#DejaVuSans-30" x="63.623047"/>
       <use xlink:href="#DejaVuSans-30" x="127.246094"/>
      </g>
     </g>
    </g>
    <g id="text_8">
     <!-- Размерность матрицы -->
     <g transform="translate(177.351406 335.860562) scale(0.1 -0.1)">
      <defs>
       <path id="DejaVuSans-420" d="M 1259 4147 
L 1259 2394 
L 2053 2394 
Q 2494 2394 2734 2622 
Q 2975 2850 2975 3272 
Q 2975 3691 2734 3919 
Q 2494 4147 2053 4147 
L 1259 4147 
z
M 628 4666 
L 2053 4666 
Q 2838 4666 3239 4311 
Q 3641 3956 3641 3272 
Q 3641 2581 3239 2228 
Q 2838 1875 2053 1875 
L 1259 1875 
L 1259 0 
L 628 0 
L 628 4666 
z
" transform="scale(0.015625)"/>
       <path id="DejaVuSans-430" d="M 2194 1759 
Q 1497 1759 1228 1600 
Q 959 1441 959 1056 
Q 959 750 1161 570 
Q 1363 391 1709 391 
Q 2188 391 2477 730 
Q 2766 1069 2766 1631 
L 2766 1759 
L 2194 1759 
z
M 3341 1997 
L 3341 0 
L 2766 0 
L 2766 531 
Q 2569 213 2275 61 
Q 1981 -91 1556 -91 
Q 1019 -91 701 211 
Q 384 513 384 1019 
Q 384 1609 779 1909 
Q 1175 2209 1959 2209 
L 2766 2209 
L 2766 2266 
Q 2766 2663 2505 2880 
Q 2244 3097 1772 3097 
Q 1472 3097 1187 3025 
Q 903 2953 641 2809 
L 641 3341 
Q 956 3463 1253 3523 
Q 1550 3584 1831 3584 
Q 2591 3584 2966 3190 
Q 3341 2797 3341 1997 
z
" transform="scale(0.015625)"/>
       <path id="DejaVuSans-437" d="M 2206 1888 
Q 2594 1813 2809 1584 
Q 3025 1356 3025 1019 
Q 3025 478 2622 193 
Q 2219 -91 1475 -91 
Q 1225 -91 961 -47 
Q 697 -3 416 84 
L 416 619 
Q 638 503 903 445 
Q 1169 388 1459 388 
Q 1931 388 2195 563 
Q 2459 738 2459 1019 
Q 2459 1294 2225 1461 
Q 1991 1628 1563 1628 
L 1100 1628 
L 1100 2103 
L 1584 2103 
Q 1947 2103 2158 2242 
Q 2369 2381 2369 2600 
Q 2369 2800 2151 2944 
Q 1934 3088 1563 3088 
Q 1341 3088 1089 3047 
Q 838 3006 534 2916 
L 534 3438 
Q 841 3513 1106 3550 
Q 1372 3588 1609 3588 
Q 2222 3588 2576 3342 
Q 2931 3097 2931 2656 
Q 2931 2366 2743 2164 
Q 2556 1963 2206 1888 
z
" transform="scale(0.015625)"/>
       <path id="DejaVuSans-43c" d="M 581 3500 
L 1422 3500 
L 2416 1156 
L 3413 3500 
L 4247 3500 
L 4247 0 
L 3669 0 
L 3669 2950 
L 2703 672 
L 2128 672 
L 1159 2950 
L 1159 0 
L 581 0 
L 581 3500 
z
" transform="scale(0.015625)"/>
       <path id="DejaVuSans-435" d="M 3597 1894 
L 3597 1613 
L 953 1613 
Q 991 1019 1311 708 
Q 1631 397 2203 397 
Q 2534 397 2845 478 
Q 3156 559 3463 722 
L 3463 178 
Q 3153 47 2828 -22 
Q 2503 -91 2169 -91 
Q 1331 -91 842 396 
Q 353 884 353 1716 
Q 353 2575 817 3079 
Q 1281 3584 2069 3584 
Q 2775 3584 3186 3129 
Q 3597 2675 3597 1894 
z
M 3022 2063 
Q 3016 2534 2758 2815 
Q 2500 3097 2075 3097 
Q 1594 3097 1305 2825 
Q 1016 2553 972 2059 
L 3022 2063 
z
" transform="scale(0.015625)"/>
       <path id="DejaVuSans-440" d="M 1159 525 
L 1159 -1331 
L 581 -1331 
L 581 3500 
L 1159 3500 
L 1159 2969 
Q 1341 3281 1617 3432 
Q 1894 3584 2278 3584 
Q 2916 3584 3314 3078 
Q 3713 2572 3713 1747 
Q 3713 922 3314 415 
Q 2916 -91 2278 -91 
Q 1894 -91 1617 61 
Q 1341 213 1159 525 
z
M 3116 1747 
Q 3116 2381 2855 2742 
Q 2594 3103 2138 3103 
Q 1681 3103 1420 2742 
Q 1159 2381 1159 1747 
Q 1159 1113 1420 752 
Q 1681 391 2138 391 
Q 2594 391 2855 752 
Q 3116 1113 3116 1747 
z
" transform="scale(0.015625)"/>
       <path id="DejaVuSans-43d" d="M 581 3500 
L 1159 3500 
L 1159 2072 
L 3025 2072 
L 3025 3500 
L 3603 3500 
L 3603 0 
L 3025 0 
L 3025 1613 
L 1159 1613 
L 1159 0 
L 581 0 
L 581 3500 
z
" transform="scale(0.015625)"/>
       <path id="DejaVuSans-43e" d="M 1959 3097 
Q 1497 3097 1228 2736 
Q 959 2375 959 1747 
Q 959 1119 1226 758 
Q 1494 397 1959 397 
Q 2419 397 2687 759 
Q 2956 1122 2956 1747 
Q 2956 2369 2687 2733 
Q 2419 3097 1959 3097 
z
M 1959 3584 
Q 2709 3584 3137 3096 
Q 3566 2609 3566 1747 
Q 3566 888 3137 398 
Q 2709 -91 1959 -91 
Q 1206 -91 779 398 
Q 353 888 353 1747 
Q 353 2609 779 3096 
Q 1206 3584 1959 3584 
z
" transform="scale(0.015625)"/>
       <path id="DejaVuSans-441" d="M 3122 3366 
L 3122 2828 
Q 2878 2963 2633 3030 
Q 2388 3097 2138 3097 
Q 1578 3097 1268 2742 
Q 959 2388 959 1747 
Q 959 1106 1268 751 
Q 1578 397 2138 397 
Q 2388 397 2633 464 
Q 2878 531 3122 666 
L 3122 134 
Q 2881 22 2623 -34 
Q 2366 -91 2075 -91 
Q 1284 -91 818 406 
Q 353 903 353 1747 
Q 353 2603 823 3093 
Q 1294 3584 2113 3584 
Q 2378 3584 2631 3529 
Q 2884 3475 3122 3366 
z
" transform="scale(0.015625)"/>
       <path id="DejaVuSans-442" d="M 188 3500 
L 3541 3500 
L 3541 3041 
L 2147 3041 
L 2147 0 
L 1581 0 
L 1581 3041 
L 188 3041 
L 188 3500 
z
" transform="scale(0.015625)"/>
       <path id="DejaVuSans-44c" d="M 2781 1038 
Q 2781 1319 2576 1466 
Q 2372 1613 1978 1613 
L 1159 1613 
L 1159 459 
L 1978 459 
Q 2372 459 2576 607 
Q 2781 756 2781 1038 
z
M 581 3500 
L 1159 3500 
L 1159 2072 
L 2003 2072 
Q 2672 2072 3033 1817 
Q 3394 1563 3394 1038 
Q 3394 513 3033 256 
Q 2672 0 2003 0 
L 581 0 
L 581 3500 
z
" transform="scale(0.015625)"/>
       <path id="DejaVuSans-20" transform="scale(0.015625)"/>
       <path id="DejaVuSans-438" d="M 3578 3500 
L 3578 0 
L 3006 0 
L 3006 2809 
L 1319 0 
L 581 0 
L 581 3500 
L 1153 3500 
L 1153 697 
L 2838 3500 
L 3578 3500 
z
" transform="scale(0.015625)"/>
       <path id="DejaVuSans-446" d="M 3603 0 
L 581 0 
L 581 3500 
L 1159 3500 
L 1159 459 
L 3025 459 
L 3025 3500 
L 3603 3500 
L 3603 459 
L 4063 459 
L 4063 -884 
L 3603 -884 
L 3603 0 
z
" transform="scale(0.015625)"/>
       <path id="DejaVuSans-44b" d="M 3907 3500 
L 4482 3500 
L 4482 0 
L 3907 0 
L 3907 3500 
z
M 4195 3584 
L 4195 3584 
z
M 2781 1038 
Q 2781 1319 2576 1466 
Q 2372 1613 1978 1613 
L 1159 1613 
L 1159 459 
L 1978 459 
Q 2372 459 2576 607 
Q 2781 756 2781 1038 
z
M 581 3500 
L 1159 3500 
L 1159 2072 
L 2003 2072 
Q 2672 2072 3033 1817 
Q 3394 1563 3394 1038 
Q 3394 513 3033 256 
Q 2672 0 2003 0 
L 581 0 
L 581 3500 
z
" transform="scale(0.015625)"/>
      </defs>
      <use xlink:href="#DejaVuSans-420"/>
      <use xlink:href="#DejaVuSans-430" x="60.302734"/>
      <use xlink:href="#DejaVuSans-437" x="121.582031"/>
      <use xlink:href="#DejaVuSans-43c" x="174.755859"/>
      <use xlink:href="#DejaVuSans-435" x="250.195312"/>
      <use xlink:href="#DejaVuSans-440" x="311.71875"/>
      <use xlink:href="#DejaVuSans-43d" x="375.195312"/>
      <use xlink:href="#DejaVuSans-43e" x="440.576172"/>
      <use xlink:href="#DejaVuSans-441" x="501.757812"/>
      <use xlink:href="#DejaVuSans-442" x="556.738281"/>
      <use xlink:href="#DejaVuSans-44c" x="614.990234"/>
      <use xlink:href="#DejaVuSans-20" x="673.925781"/>
      <use xlink:href="#DejaVuSans-43c" x="705.712891"/>
      <use xlink:href="#DejaVuSans-430" x="781.152344"/>
      <use xlink:href="#DejaVuSans-442" x="842.431641"/>
      <use xlink:href="#DejaVuSans-440" x="900.683594"/>
      <use xlink:href="#DejaVuSans-438" x="964.160156"/>
      <use xlink:href="#DejaVuSans-446" x="1029.150391"/>
      <use xlink:href="#DejaVuSans-44b" x="1097.216797"/>
     </g>
    </g>
   </g>
   <g id="matplotlib.axis_2">
    <g id="ytick_1">
     <g id="line2d_15">
      <path d="M 57.6 295.506807 
L 414.72 295.506807 
" clip-path="url(#pf24da8e76b)" style="fill: none; stroke: #b0b0b0; stroke-width: 0.8; stroke-linecap: square"/>
     </g>
     <g id="line2d_16">
      <defs>
       <path id="mf95ee05ff6" d="M 0 0 
L -3.5 0 
" style="stroke: #000000; stroke-width: 0.8"/>
      </defs>
      <g>
       <use xlink:href="#mf95ee05ff6" x="57.6" y="295.506807" style="stroke: #000000; stroke-width: 0.8"/>
      </g>
     </g>
     <g id="text_9">
      <!-- 0 -->
      <g transform="translate(44.2375 299.306025) scale(0.1 -0.1)">
       <use xlink:href="#DejaVuSans-30"/>
      </g>
     </g>
    </g>
    <g id="ytick_2">
     <g id="line2d_17">
      <path d="M 57.6 265.464422 
L 414.72 265.464422 
" clip-path="url(#pf24da8e76b)" style="fill: none; stroke: #b0b0b0; stroke-width: 0.8; stroke-linecap: square"/>
     </g>
     <g id="line2d_18">
      <g>
       <use xlink:href="#mf95ee05ff6" x="57.6" y="265.464422" style="stroke: #000000; stroke-width: 0.8"/>
      </g>
     </g>
     <g id="text_10">
      <!-- 10 -->
      <g transform="translate(37.875 269.26364) scale(0.1 -0.1)">
       <use xlink:href="#DejaVuSans-31"/>
       <use xlink:href="#DejaVuSans-30" x="63.623047"/>
      </g>
     </g>
    </g>
    <g id="ytick_3">
     <g id="line2d_19">
      <path d="M 57.6 235.422037 
L 414.72 235.422037 
" clip-path="url(#pf24da8e76b)" style="fill: none; stroke: #b0b0b0; stroke-width: 0.8; stroke-linecap: square"/>
     </g>
     <g id="line2d_20">
      <g>
       <use xlink:href="#mf95ee05ff6" x="57.6" y="235.422037" style="stroke: #000000; stroke-width: 0.8"/>
      </g>
     </g>
     <g id="text_11">
      <!-- 20 -->
      <g transform="translate(37.875 239.221255) scale(0.1 -0.1)">
       <use xlink:href="#DejaVuSans-32"/>
       <use xlink:href="#DejaVuSans-30" x="63.623047"/>
      </g>
     </g>
    </g>
    <g id="ytick_4">
     <g id="line2d_21">
      <path d="M 57.6 205.379652 
L 414.72 205.379652 
" clip-path="url(#pf24da8e76b)" style="fill: none; stroke: #b0b0b0; stroke-width: 0.8; stroke-linecap: square"/>
     </g>
     <g id="line2d_22">
      <g>
       <use xlink:href="#mf95ee05ff6" x="57.6" y="205.379652" style="stroke: #000000; stroke-width: 0.8"/>
      </g>
     </g>
     <g id="text_12">
      <!-- 30 -->
      <g transform="translate(37.875 209.17887) scale(0.1 -0.1)">
       <use xlink:href="#DejaVuSans-33"/>
       <use xlink:href="#DejaVuSans-30" x="63.623047"/>
      </g>
     </g>
    </g>
    <g id="ytick_5">
     <g id="line2d_23">
      <path d="M 57.6 175.337267 
L 414.72 175.337267 
" clip-path="url(#pf24da8e76b)" style="fill: none; stroke: #b0b0b0; stroke-width: 0.8; stroke-linecap: square"/>
     </g>
     <g id="line2d_24">
      <g>
       <use xlink:href="#mf95ee05ff6" x="57.6" y="175.337267" style="stroke: #000000; stroke-width: 0.8"/>
      </g>
     </g>
     <g id="text_13">
      <!-- 40 -->
      <g transform="translate(37.875 179.136485) scale(0.1 -0.1)">
       <defs>
        <path id="DejaVuSans-34" d="M 2419 4116 
L 825 1625 
L 2419 1625 
L 2419 4116 
z
M 2253 4666 
L 3047 4666 
L 3047 1625 
L 3713 1625 
L 3713 1100 
L 3047 1100 
L 3047 0 
L 2419 0 
L 2419 1100 
L 313 1100 
L 313 1709 
L 2253 4666 
z
" transform="scale(0.015625)"/>
       </defs>
       <use xlink:href="#DejaVuSans-34"/>
       <use xlink:href="#DejaVuSans-30" x="63.623047"/>
      </g>
     </g>
    </g>
    <g id="ytick_6">
     <g id="line2d_25">
      <path d="M 57.6 145.294882 
L 414.72 145.294882 
" clip-path="url(#pf24da8e76b)" style="fill: none; stroke: #b0b0b0; stroke-width: 0.8; stroke-linecap: square"/>
     </g>
     <g id="line2d_26">
      <g>
       <use xlink:href="#mf95ee05ff6" x="57.6" y="145.294882" style="stroke: #000000; stroke-width: 0.8"/>
      </g>
     </g>
     <g id="text_14">
      <!-- 50 -->
      <g transform="translate(37.875 149.094101) scale(0.1 -0.1)">
       <use xlink:href="#DejaVuSans-35"/>
       <use xlink:href="#DejaVuSans-30" x="63.623047"/>
      </g>
     </g>
    </g>
    <g id="ytick_7">
     <g id="line2d_27">
      <path d="M 57.6 115.252497 
L 414.72 115.252497 
" clip-path="url(#pf24da8e76b)" style="fill: none; stroke: #b0b0b0; stroke-width: 0.8; stroke-linecap: square"/>
     </g>
     <g id="line2d_28">
      <g>
       <use xlink:href="#mf95ee05ff6" x="57.6" y="115.252497" style="stroke: #000000; stroke-width: 0.8"/>
      </g>
     </g>
     <g id="text_15">
      <!-- 60 -->
      <g transform="translate(37.875 119.051716) scale(0.1 -0.1)">
       <defs>
        <path id="DejaVuSans-36" d="M 2113 2584 
Q 1688 2584 1439 2293 
Q 1191 2003 1191 1497 
Q 1191 994 1439 701 
Q 1688 409 2113 409 
Q 2538 409 2786 701 
Q 3034 994 3034 1497 
Q 3034 2003 2786 2293 
Q 2538 2584 2113 2584 
z
M 3366 4563 
L 3366 3988 
Q 3128 4100 2886 4159 
Q 2644 4219 2406 4219 
Q 1781 4219 1451 3797 
Q 1122 3375 1075 2522 
Q 1259 2794 1537 2939 
Q 1816 3084 2150 3084 
Q 2853 3084 3261 2657 
Q 3669 2231 3669 1497 
Q 3669 778 3244 343 
Q 2819 -91 2113 -91 
Q 1303 -91 875 529 
Q 447 1150 447 2328 
Q 447 3434 972 4092 
Q 1497 4750 2381 4750 
Q 2619 4750 2861 4703 
Q 3103 4656 3366 4563 
z
" transform="scale(0.015625)"/>
       </defs>
       <use xlink:href="#DejaVuSans-36"/>
       <use xlink:href="#DejaVuSans-30" x="63.623047"/>
      </g>
     </g>
    </g>
    <g id="ytick_8">
     <g id="line2d_29">
      <path d="M 57.6 85.210112 
L 414.72 85.210112 
" clip-path="url(#pf24da8e76b)" style="fill: none; stroke: #b0b0b0; stroke-width: 0.8; stroke-linecap: square"/>
     </g>
     <g id="line2d_30">
      <g>
       <use xlink:href="#mf95ee05ff6" x="57.6" y="85.210112" style="stroke: #000000; stroke-width: 0.8"/>
      </g>
     </g>
     <g id="text_16">
      <!-- 70 -->
      <g transform="translate(37.875 89.009331) scale(0.1 -0.1)">
       <defs>
        <path id="DejaVuSans-37" d="M 525 4666 
L 3525 4666 
L 3525 4397 
L 1831 0 
L 1172 0 
L 2766 4134 
L 525 4134 
L 525 4666 
z
" transform="scale(0.015625)"/>
       </defs>
       <use xlink:href="#DejaVuSans-37"/>
       <use xlink:href="#DejaVuSans-30" x="63.623047"/>
      </g>
     </g>
    </g>
    <g id="ytick_9">
     <g id="line2d_31">
      <path d="M 57.6 55.167727 
L 414.72 55.167727 
" clip-path="url(#pf24da8e76b)" style="fill: none; stroke: #b0b0b0; stroke-width: 0.8; stroke-linecap: square"/>
     </g>
     <g id="line2d_32">
      <g>
       <use xlink:href="#mf95ee05ff6" x="57.6" y="55.167727" style="stroke: #000000; stroke-width: 0.8"/>
      </g>
     </g>
     <g id="text_17">
      <!-- 80 -->
      <g transform="translate(37.875 58.966946) scale(0.1 -0.1)">
       <defs>
        <path id="DejaVuSans-38" d="M 2034 2216 
Q 1584 2216 1326 1975 
Q 1069 1734 1069 1313 
Q 1069 891 1326 650 
Q 1584 409 2034 409 
Q 2484 409 2743 651 
Q 3003 894 3003 1313 
Q 3003 1734 2745 1975 
Q 2488 2216 2034 2216 
z
M 1403 2484 
Q 997 2584 770 2862 
Q 544 3141 544 3541 
Q 544 4100 942 4425 
Q 1341 4750 2034 4750 
Q 2731 4750 3128 4425 
Q 3525 4100 3525 3541 
Q 3525 3141 3298 2862 
Q 3072 2584 2669 2484 
Q 3125 2378 3379 2068 
Q 3634 1759 3634 1313 
Q 3634 634 3220 271 
Q 2806 -91 2034 -91 
Q 1263 -91 848 271 
Q 434 634 434 1313 
Q 434 1759 690 2068 
Q 947 2378 1403 2484 
z
M 1172 3481 
Q 1172 3119 1398 2916 
Q 1625 2713 2034 2713 
Q 2441 2713 2670 2916 
Q 2900 3119 2900 3481 
Q 2900 3844 2670 4047 
Q 2441 4250 2034 4250 
Q 1625 4250 1398 4047 
Q 1172 3844 1172 3481 
z
" transform="scale(0.015625)"/>
       </defs>
       <use xlink:href="#DejaVuSans-38"/>
       <use xlink:href="#DejaVuSans-30" x="63.623047"/>
      </g>
     </g>
    </g>
    <g id="text_18">
     <!-- Время, мс -->
     <g transform="translate(31.795312 200.688156) rotate(-90) scale(0.1 -0.1)">
      <defs>
       <path id="DejaVuSans-412" d="M 1259 2228 
L 1259 519 
L 2272 519 
Q 2781 519 3026 730 
Q 3272 941 3272 1375 
Q 3272 1813 3026 2020 
Q 2781 2228 2272 2228 
L 1259 2228 
z
M 1259 4147 
L 1259 2741 
L 2194 2741 
Q 2656 2741 2882 2914 
Q 3109 3088 3109 3444 
Q 3109 3797 2882 3972 
Q 2656 4147 2194 4147 
L 1259 4147 
z
M 628 4666 
L 2241 4666 
Q 2963 4666 3353 4366 
Q 3744 4066 3744 3513 
Q 3744 3084 3544 2831 
Q 3344 2578 2956 2516 
Q 3422 2416 3680 2098 
Q 3938 1781 3938 1306 
Q 3938 681 3513 340 
Q 3088 0 2303 0 
L 628 0 
L 628 4666 
z
" transform="scale(0.015625)"/>
       <path id="DejaVuSans-44f" d="M 1181 2491 
Q 1181 2231 1381 2084 
Q 1581 1938 1953 1938 
L 2728 1938 
L 2728 3041 
L 1953 3041 
Q 1581 3041 1381 2897 
Q 1181 2753 1181 2491 
z
M 363 0 
L 1431 1534 
Q 1069 1616 828 1830 
Q 588 2044 588 2491 
Q 588 2997 923 3248 
Q 1259 3500 1938 3500 
L 3306 3500 
L 3306 0 
L 2728 0 
L 2728 1478 
L 2013 1478 
L 981 0 
L 363 0 
z
" transform="scale(0.015625)"/>
       <path id="DejaVuSans-2c" d="M 750 794 
L 1409 794 
L 1409 256 
L 897 -744 
L 494 -744 
L 750 256 
L 750 794 
z
" transform="scale(0.015625)"/>
      </defs>
      <use xlink:href="#DejaVuSans-412"/>
      <use xlink:href="#DejaVuSans-440" x="68.603516"/>
      <use xlink:href="#DejaVuSans-435" x="132.080078"/>
      <use xlink:href="#DejaVuSans-43c" x="193.603516"/>
      <use xlink:href="#DejaVuSans-44f" x="269.042969"/>
      <use xlink:href="#DejaVuSans-2c" x="329.199219"/>
      <use xlink:href="#DejaVuSans-20" x="360.986328"/>
      <use xlink:href="#DejaVuSans-43c" x="392.773438"/>
      <use xlink:href="#DejaVuSans-441" x="468.212891"/>
     </g>
    </g>
   </g>
   <g id="line2d_33">
    <path d="M 73.832727 295.478747 
L 85.027712 295.356775 
L 96.222696 295.158645 
L 107.41768 294.874234 
L 118.612665 294.471155 
L 129.807649 293.744881 
L 141.002633 292.706586 
L 152.197618 291.37667 
L 163.392602 289.677262 
L 174.587586 287.535811 
L 185.782571 284.896647 
L 196.977555 281.864319 
L 208.172539 277.749384 
L 219.367524 273.395581 
L 230.562508 267.90852 
L 241.757492 262.607571 
L 252.952476 255.310246 
L 264.147461 247.661454 
L 275.342445 238.645014 
L 286.537429 229.681177 
L 297.732414 217.886687 
L 308.927398 205.644986 
L 320.122382 192.45022 
L 331.317367 178.909727 
L 342.512351 153.865343 
L 353.707335 145.218093 
L 364.90232 117.504444 
L 376.097304 107.518926 
L 387.292288 87.585473 
L 398.487273 53.568 
" clip-path="url(#pf24da8e76b)" style="fill: none; stroke: #0000ff; stroke-width: 1.5; stroke-linecap: square"/>
    <defs>
     <path id="m8b189d28e0" d="M 0 1.5 
C 0.397805 1.5 0.77937 1.341951 1.06066 1.06066 
C 1.341951 0.77937 1.5 0.397805 1.5 0 
C 1.5 -0.397805 1.341951 -0.77937 1.06066 -1.06066 
C 0.77937 -1.341951 0.397805 -1.5 0 -1.5 
C -0.397805 -1.5 -0.77937 -1.341951 -1.06066 -1.06066 
C -1.341951 -0.77937 -1.5 -0.397805 -1.5 0 
C -1.5 0.397805 -1.341951 0.77937 -1.06066 1.06066 
C -0.77937 1.341951 -0.397805 1.5 0 1.5 
z
" style="stroke: #0000ff"/>
    </defs>
    <g clip-path="url(#pf24da8e76b)">
     <use xlink:href="#m8b189d28e0" x="73.832727" y="295.478747" style="fill: #0000ff; stroke: #0000ff"/>
     <use xlink:href="#m8b189d28e0" x="85.027712" y="295.356775" style="fill: #0000ff; stroke: #0000ff"/>
     <use xlink:href="#m8b189d28e0" x="96.222696" y="295.158645" style="fill: #0000ff; stroke: #0000ff"/>
     <use xlink:href="#m8b189d28e0" x="107.41768" y="294.874234" style="fill: #0000ff; stroke: #0000ff"/>
     <use xlink:href="#m8b189d28e0" x="118.612665" y="294.471155" style="fill: #0000ff; stroke: #0000ff"/>
     <use xlink:href="#m8b189d28e0" x="129.807649" y="293.744881" style="fill: #0000ff; stroke: #0000ff"/>
     <use xlink:href="#m8b189d28e0" x="141.002633" y="292.706586" style="fill: #0000ff; stroke: #0000ff"/>
     <use xlink:href="#m8b189d28e0" x="152.197618" y="291.37667" style="fill: #0000ff; stroke: #0000ff"/>
     <use xlink:href="#m8b189d28e0" x="163.392602" y="289.677262" style="fill: #0000ff; stroke: #0000ff"/>
     <use xlink:href="#m8b189d28e0" x="174.587586" y="287.535811" style="fill: #0000ff; stroke: #0000ff"/>
     <use xlink:href="#m8b189d28e0" x="185.782571" y="284.896647" style="fill: #0000ff; stroke: #0000ff"/>
     <use xlink:href="#m8b189d28e0" x="196.977555" y="281.864319" style="fill: #0000ff; stroke: #0000ff"/>
     <use xlink:href="#m8b189d28e0" x="208.172539" y="277.749384" style="fill: #0000ff; stroke: #0000ff"/>
     <use xlink:href="#m8b189d28e0" x="219.367524" y="273.395581" style="fill: #0000ff; stroke: #0000ff"/>
     <use xlink:href="#m8b189d28e0" x="230.562508" y="267.90852" style="fill: #0000ff; stroke: #0000ff"/>
     <use xlink:href="#m8b189d28e0" x="241.757492" y="262.607571" style="fill: #0000ff; stroke: #0000ff"/>
     <use xlink:href="#m8b189d28e0" x="252.952476" y="255.310246" style="fill: #0000ff; stroke: #0000ff"/>
     <use xlink:href="#m8b189d28e0" x="264.147461" y="247.661454" style="fill: #0000ff; stroke: #0000ff"/>
     <use xlink:href="#m8b189d28e0" x="275.342445" y="238.645014" style="fill: #0000ff; stroke: #0000ff"/>
     <use xlink:href="#m8b189d28e0" x="286.537429" y="229.681177" style="fill: #0000ff; stroke: #0000ff"/>
     <use xlink:href="#m8b189d28e0" x="297.732414" y="217.886687" style="fill: #0000ff; stroke: #0000ff"/>
     <use xlink:href="#m8b189d28e0" x="308.927398" y="205.644986" style="fill: #0000ff; stroke: #0000ff"/>
     <use xlink:href="#m8b189d28e0" x="320.122382" y="192.45022" style="fill: #0000ff; stroke: #0000ff"/>
     <use xlink:href="#m8b189d28e0" x="331.317367" y="178.909727" style="fill: #0000ff; stroke: #0000ff"/>
     <use xlink:href="#m8b189d28e0" x="342.512351" y="153.865343" style="fill: #0000ff; stroke: #0000ff"/>
     <use xlink:href="#m8b189d28e0" x="353.707335" y="145.218093" style="fill: #0000ff; stroke: #0000ff"/>
     <use xlink:href="#m8b189d28e0" x="364.90232" y="117.504444" style="fill: #0000ff; stroke: #0000ff"/>
     <use xlink:href="#m8b189d28e0" x="376.097304" y="107.518926" style="fill: #0000ff; stroke: #0000ff"/>
     <use xlink:href="#m8b189d28e0" x="387.292288" y="87.585473" style="fill: #0000ff; stroke: #0000ff"/>
     <use xlink:href="#m8b189d28e0" x="398.487273" y="53.568" style="fill: #0000ff; stroke: #0000ff"/>
    </g>
   </g>
   <g id="line2d_34">
    <path d="M 73.832727 295.477425 
L 85.027712 295.39589 
L 96.222696 295.27542 
L 107.41768 295.121994 
L 118.612665 294.829561 
L 129.807649 294.387127 
L 141.002633 293.711353 
L 152.197618 292.741495 
L 163.392602 291.531538 
L 174.587586 290.20718 
L 185.782571 288.413799 
L 196.977555 286.508602 
L 208.172539 283.873914 
L 219.367524 281.196627 
L 230.562508 277.687677 
L 241.757492 274.275042 
L 252.952476 269.793019 
L 264.147461 265.543283 
L 275.342445 259.818196 
L 286.537429 254.509676 
L 297.732414 247.611764 
L 308.927398 241.101399 
L 320.122382 232.940025 
L 331.317367 224.949892 
L 342.512351 215.410504 
L 353.707335 206.289876 
L 364.90232 195.221931 
L 376.097304 183.735075 
L 387.292288 171.421572 
L 398.487273 158.581667 
" clip-path="url(#pf24da8e76b)" style="fill: none; stroke: #008000; stroke-width: 1.5; stroke-linecap: square"/>
    <defs>
     <path id="m5165095f8f" d="M 0 -3 
L -3 3 
L 3 3 
z
" style="stroke: #008000; stroke-linejoin: miter"/>
    </defs>
    <g clip-path="url(#pf24da8e76b)">
     <use xlink:href="#m5165095f8f" x="73.832727" y="295.477425" style="fill: #008000; stroke: #008000; stroke-linejoin: miter"/>
     <use xlink:href="#m5165095f8f" x="85.027712" y="295.39589" style="fill: #008000; stroke: #008000; stroke-linejoin: miter"/>
     <use xlink:href="#m5165095f8f" x="96.222696" y="295.27542" style="fill: #008000; stroke: #008000; stroke-linejoin: miter"/>
     <use xlink:href="#m5165095f8f" x="107.41768" y="295.121994" style="fill: #008000; stroke: #008000; stroke-linejoin: miter"/>
     <use xlink:href="#m5165095f8f" x="118.612665" y="294.829561" style="fill: #008000; stroke: #008000; stroke-linejoin: miter"/>
     <use xlink:href="#m5165095f8f" x="129.807649" y="294.387127" style="fill: #008000; stroke: #008000; stroke-linejoin: miter"/>
     <use xlink:href="#m5165095f8f" x="141.002633" y="293.711353" style="fill: #008000; stroke: #008000; stroke-linejoin: miter"/>
     <use xlink:href="#m5165095f8f" x="152.197618" y="292.741495" style="fill: #008000; stroke: #008000; stroke-linejoin: miter"/>
     <use xlink:href="#m5165095f8f" x="163.392602" y="291.531538" style="fill: #008000; stroke: #008000; stroke-linejoin: miter"/>
     <use xlink:href="#m5165095f8f" x="174.587586" y="290.20718" style="fill: #008000; stroke: #008000; stroke-linejoin: miter"/>
     <use xlink:href="#m5165095f8f" x="185.782571" y="288.413799" style="fill: #008000; stroke: #008000; stroke-linejoin: miter"/>
     <use xlink:href="#m5165095f8f" x="196.977555" y="286.508602" style="fill: #008000; stroke: #008000; stroke-linejoin: miter"/>
     <use xlink:href="#m5165095f8f" x="208.172539" y="283.873914" style="fill: #008000; stroke: #008000; stroke-linejoin: miter"/>
     <use xlink:href="#m5165095f8f" x="219.367524" y="281.196627" style="fill: #008000; stroke: #008000; stroke-linejoin: miter"/>
     <use xlink:href="#m5165095f8f" x="230.562508" y="277.687677" style="fill: #008000; stroke: #008000; stroke-linejoin: miter"/>
     <use xlink:href="#m5165095f8f" x="241.757492" y="274.275042" style="fill: #008000; stroke: #008000; stroke-linejoin: miter"/>
     <use xlink:href="#m5165095f8f" x="252.952476" y="269.793019" style="fill: #008000; stroke: #008000; stroke-linejoin: miter"/>
     <use xlink:href="#m5165095f8f" x="264.147461" y="265.543283" style="fill: #008000; stroke: #008000; stroke-linejoin: miter"/>
     <use xlink:href="#m5165095f8f" x="275.342445" y="259.818196" style="fill: #008000; stroke: #008000; stroke-linejoin: miter"/>
     <use xlink:href="#m5165095f8f" x="286.537429" y="254.509676" style="fill: #008000; stroke: #008000; stroke-linejoin: miter"/>
     <use xlink:href="#m5165095f8f" x="297.732414" y="247.611764" style="fill: #008000; stroke: #008000; stroke-linejoin: miter"/>
     <use xlink:href="#m5165095f8f" x="308.927398" y="241.101399" style="fill: #008000; stroke: #008000; stroke-linejoin: miter"/>
     <use xlink:href="#m5165095f8f" x="320.122382" y="232.940025" style="fill: #008000; stroke: #008000; stroke-linejoin: miter"/>
     <use xlink:href="#m5165095f8f" x="331.317367" y="224.949892" style="fill: #008000; stroke: #008000; stroke-linejoin: miter"/>
     <use xlink:href="#m5165095f8f" x="342.512351" y="215.410504" style="fill: #008000; stroke: #008000; stroke-linejoin: miter"/>
     <use xlink:href="#m5165095f8f" x="353.707335" y="206.289876" style="fill: #008000; stroke: #008000; stroke-linejoin: miter"/>
     <use xlink:href="#m5165095f8f" x="364.90232" y="195.221931" style="fill: #008000; stroke: #008000; stroke-linejoin: miter"/>
     <use xlink:href="#m5165095f8f" x="376.097304" y="183.735075" style="fill: #008000; stroke: #008000; stroke-linejoin: miter"/>
     <use xlink:href="#m5165095f8f" x="387.292288" y="171.421572" style="fill: #008000; stroke: #008000; stroke-linejoin: miter"/>
     <use xlink:href="#m5165095f8f" x="398.487273" y="158.581667" style="fill: #008000; stroke: #008000; stroke-linejoin: miter"/>
    </g>
   </g>
   <g id="line2d_35">
    <path d="M 73.832727 295.488 
L 85.027712 295.426533 
L 96.222696 295.356114 
L 107.41768 295.155972 
L 118.612665 294.882796 
L 129.807649 294.454392 
L 141.002633 293.855317 
L 152.197618 293.043031 
L 163.392602 291.921819 
L 174.587586 290.560748 
L 185.782571 289.014497 
L 196.977555 287.112183 
L 208.172539 284.899471 
L 219.367524 282.461231 
L 230.562508 279.240718 
L 241.757492 275.88967 
L 252.952476 271.735078 
L 264.147461 267.565406 
L 275.342445 263.068692 
L 286.537429 257.616059 
L 297.732414 251.711138 
L 308.927398 245.32665 
L 320.122382 237.684799 
L 331.317367 230.282325 
L 342.512351 221.54582 
L 353.707335 211.840717 
L 364.90232 199.817064 
L 376.097304 187.946957 
L 387.292288 174.12755 
L 398.487273 161.333189 
" clip-path="url(#pf24da8e76b)" style="fill: none; stroke: #ff0000; stroke-width: 1.5; stroke-linecap: square"/>
    <defs>
     <path id="m647ddaa5de" d="M -0 3 
L 3 -3 
L -3 -3 
z
" style="stroke: #ff0000; stroke-linejoin: miter"/>
    </defs>
    <g clip-path="url(#pf24da8e76b)">
     <use xlink:href="#m647ddaa5de" x="73.832727" y="295.488" style="fill: #ff0000; stroke: #ff0000; stroke-linejoin: miter"/>
     <use xlink:href="#m647ddaa5de" x="85.027712" y="295.426533" style="fill: #ff0000; stroke: #ff0000; stroke-linejoin: miter"/>
     <use xlink:href="#m647ddaa5de" x="96.222696" y="295.356114" style="fill: #ff0000; stroke: #ff0000; stroke-linejoin: miter"/>
     <use xlink:href="#m647ddaa5de" x="107.41768" y="295.155972" style="fill: #ff0000; stroke: #ff0000; stroke-linejoin: miter"/>
     <use xlink:href="#m647ddaa5de" x="118.612665" y="294.882796" style="fill: #ff0000; stroke: #ff0000; stroke-linejoin: miter"/>
     <use xlink:href="#m647ddaa5de" x="129.807649" y="294.454392" style="fill: #ff0000; stroke: #ff0000; stroke-linejoin: miter"/>
     <use xlink:href="#m647ddaa5de" x="141.002633" y="293.855317" style="fill: #ff0000; stroke: #ff0000; stroke-linejoin: miter"/>
     <use xlink:href="#m647ddaa5de" x="152.197618" y="293.043031" style="fill: #ff0000; stroke: #ff0000; stroke-linejoin: miter"/>
     <use xlink:href="#m647ddaa5de" x="163.392602" y="291.921819" style="fill: #ff0000; stroke: #ff0000; stroke-linejoin: miter"/>
     <use xlink:href="#m647ddaa5de" x="174.587586" y="290.560748" style="fill: #ff0000; stroke: #ff0000; stroke-linejoin: miter"/>
     <use xlink:href="#m647ddaa5de" x="185.782571" y="289.014497" style="fill: #ff0000; stroke: #ff0000; stroke-linejoin: miter"/>
     <use xlink:href="#m647ddaa5de" x="196.977555" y="287.112183" style="fill: #ff0000; stroke: #ff0000; stroke-linejoin: miter"/>
     <use xlink:href="#m647ddaa5de" x="208.172539" y="284.899471" style="fill: #ff0000; stroke: #ff0000; stroke-linejoin: miter"/>
     <use xlink:href="#m647ddaa5de" x="219.367524" y="282.461231" style="fill: #ff0000; stroke: #ff0000; stroke-linejoin: miter"/>
     <use xlink:href="#m647ddaa5de" x="230.562508" y="279.240718" style="fill: #ff0000; stroke: #ff0000; stroke-linejoin: miter"/>
     <use xlink:href="#m647ddaa5de" x="241.757492" y="275.88967" style="fill: #ff0000; stroke: #ff0000; stroke-linejoin: miter"/>
     <use xlink:href="#m647ddaa5de" x="252.952476" y="271.735078" style="fill: #ff0000; stroke: #ff0000; stroke-linejoin: miter"/>
     <use xlink:href="#m647ddaa5de" x="264.147461" y="267.565406" style="fill: #ff0000; stroke: #ff0000; stroke-linejoin: miter"/>
     <use xlink:href="#m647ddaa5de" x="275.342445" y="263.068692" style="fill: #ff0000; stroke: #ff0000; stroke-linejoin: miter"/>
     <use xlink:href="#m647ddaa5de" x="286.537429" y="257.616059" style="fill: #ff0000; stroke: #ff0000; stroke-linejoin: miter"/>
     <use xlink:href="#m647ddaa5de" x="297.732414" y="251.711138" style="fill: #ff0000; stroke: #ff0000; stroke-linejoin: miter"/>
     <use xlink:href="#m647ddaa5de" x="308.927398" y="245.32665" style="fill: #ff0000; stroke: #ff0000; stroke-linejoin: miter"/>
     <use xlink:href="#m647ddaa5de" x="320.122382" y="237.684799" style="fill: #ff0000; stroke: #ff0000; stroke-linejoin: miter"/>
     <use xlink:href="#m647ddaa5de" x="331.317367" y="230.282325" style="fill: #ff0000; stroke: #ff0000; stroke-linejoin: miter"/>
     <use xlink:href="#m647ddaa5de" x="342.512351" y="221.54582" style="fill: #ff0000; stroke: #ff0000; stroke-linejoin: miter"/>
     <use xlink:href="#m647ddaa5de" x="353.707335" y="211.840717" style="fill: #ff0000; stroke: #ff0000; stroke-linejoin: miter"/>
     <use xlink:href="#m647ddaa5de" x="364.90232" y="199.817064" style="fill: #ff0000; stroke: #ff0000; stroke-linejoin: miter"/>
     <use xlink:href="#m647ddaa5de" x="376.097304" y="187.946957" style="fill: #ff0000; stroke: #ff0000; stroke-linejoin: miter"/>
     <use xlink:href="#m647ddaa5de" x="387.292288" y="174.12755" style="fill: #ff0000; stroke: #ff0000; stroke-linejoin: miter"/>
     <use xlink:href="#m647ddaa5de" x="398.487273" y="161.333189" style="fill: #ff0000; stroke: #ff0000; stroke-linejoin: miter"/>
    </g>
   </g>
   <g id="patch_3">
    <path d="M 57.6 307.584 
L 57.6 41.472 
" style="fill: none; stroke: #000000; stroke-width: 0.8; stroke-linejoin: miter; stroke-linecap: square"/>
   </g>
   <g id="patch_4">
    <path d="M 414.72 307.584 
L 414.72 41.472 
" style="fill: none; stroke: #000000; stroke-width: 0.8; stroke-linejoin: miter; stroke-linecap: square"/>
   </g>
   <g id="patch_5">
    <path d="M 57.6 307.584 
L 414.72 307.584 
" style="fill: none; stroke: #000000; stroke-width: 0.8; stroke-linejoin: miter; stroke-linecap: square"/>
   </g>
   <g id="patch_6">
    <path d="M 57.6 41.472 
L 414.72 41.472 
" style="fill: none; stroke: #000000; stroke-width: 0.8; stroke-linejoin: miter; stroke-linecap: square"/>
   </g>
   <g id="legend_1">
    <g id="patch_7">
     <path d="M 66 103.91325 
L 329.5275 103.91325 
Q 331.9275 103.91325 331.9275 101.51325 
L 331.9275 49.872 
Q 331.9275 47.472 329.5275 47.472 
L 66 47.472 
Q 63.6 47.472 63.6 49.872 
L 63.6 101.51325 
Q 63.6 103.91325 66 103.91325 
z
" style="fill: #ffffff; opacity: 0.8; stroke: #cccccc; stroke-linejoin: miter"/>
    </g>
    <g id="line2d_36">
     <path d="M 68.4 57.190125 
L 80.4 57.190125 
L 92.4 57.190125 
" style="fill: none; stroke: #0000ff; stroke-width: 1.5; stroke-linecap: square"/>
     <g>
      <use xlink:href="#m8b189d28e0" x="80.4" y="57.190125" style="fill: #0000ff; stroke: #0000ff"/>
     </g>
    </g>
    <g id="text_19">
     <!-- Стандартный алг. -->
     <g transform="translate(102 61.390125) scale(0.12 -0.12)">
      <defs>
       <path id="DejaVuSans-421" d="M 4122 4306 
L 4122 3641 
Q 3803 3938 3442 4084 
Q 3081 4231 2675 4231 
Q 1875 4231 1450 3742 
Q 1025 3253 1025 2328 
Q 1025 1406 1450 917 
Q 1875 428 2675 428 
Q 3081 428 3442 575 
Q 3803 722 4122 1019 
L 4122 359 
Q 3791 134 3420 21 
Q 3050 -91 2638 -91 
Q 1578 -91 968 557 
Q 359 1206 359 2328 
Q 359 3453 968 4101 
Q 1578 4750 2638 4750 
Q 3056 4750 3426 4639 
Q 3797 4528 4122 4306 
z
" transform="scale(0.015625)"/>
       <path id="DejaVuSans-434" d="M 1384 459 
L 3053 459 
L 3053 3041 
L 1844 3041 
L 1844 2603 
Q 1844 1316 1475 628 
L 1384 459 
z
M 550 459 
Q 834 584 959 850 
Q 1266 1509 1266 2838 
L 1266 3500 
L 3631 3500 
L 3631 459 
L 4091 459 
L 4091 -884 
L 3631 -884 
L 3631 0 
L 794 0 
L 794 -884 
L 334 -884 
L 334 459 
L 550 459 
z
" transform="scale(0.015625)"/>
       <path id="DejaVuSans-439" d="M 3578 3500 
L 3578 0 
L 3006 0 
L 3006 2809 
L 1319 0 
L 581 0 
L 581 3500 
L 1153 3500 
L 1153 697 
L 2838 3500 
L 3578 3500 
z
M 1102 4833 
L 1471 4833 
Q 1505 4599 1656 4481 
Q 1808 4364 2080 4364 
Q 2349 4364 2499 4480 
Q 2649 4596 2689 4833 
L 3058 4833 
Q 3027 4386 2780 4161 
Q 2533 3936 2080 3936 
Q 1627 3936 1380 4161 
Q 1133 4386 1102 4833 
z
" transform="scale(0.015625)"/>
       <path id="DejaVuSans-43b" d="M 238 0 
L 238 478 
Q 806 566 981 959 
Q 1194 1513 1194 2928 
L 1194 3500 
L 3559 3500 
L 3559 0 
L 2984 0 
L 2984 3041 
L 1769 3041 
L 1769 2694 
Q 1769 1344 1494 738 
Q 1200 91 238 0 
z
" transform="scale(0.015625)"/>
       <path id="DejaVuSans-433" d="M 581 0 
L 581 3500 
L 3050 3500 
L 3050 3041 
L 1159 3041 
L 1159 0 
L 581 0 
z
" transform="scale(0.015625)"/>
       <path id="DejaVuSans-2e" d="M 684 794 
L 1344 794 
L 1344 0 
L 684 0 
L 684 794 
z
" transform="scale(0.015625)"/>
      </defs>
      <use xlink:href="#DejaVuSans-421"/>
      <use xlink:href="#DejaVuSans-442" x="69.824219"/>
      <use xlink:href="#DejaVuSans-430" x="128.076172"/>
      <use xlink:href="#DejaVuSans-43d" x="189.355469"/>
      <use xlink:href="#DejaVuSans-434" x="254.736328"/>
      <use xlink:href="#DejaVuSans-430" x="323.876953"/>
      <use xlink:href="#DejaVuSans-440" x="385.15625"/>
      <use xlink:href="#DejaVuSans-442" x="448.632812"/>
      <use xlink:href="#DejaVuSans-43d" x="506.884766"/>
      <use xlink:href="#DejaVuSans-44b" x="572.265625"/>
      <use xlink:href="#DejaVuSans-439" x="651.220703"/>
      <use xlink:href="#DejaVuSans-20" x="716.210938"/>
      <use xlink:href="#DejaVuSans-430" x="747.998047"/>
      <use xlink:href="#DejaVuSans-43b" x="809.277344"/>
      <use xlink:href="#DejaVuSans-433" x="873.193359"/>
      <use xlink:href="#DejaVuSans-2e" x="925.732422"/>
     </g>
    </g>
    <g id="line2d_37">
     <path d="M 68.4 74.803875 
L 80.4 74.803875 
L 92.4 74.803875 
" style="fill: none; stroke: #008000; stroke-width: 1.5; stroke-linecap: square"/>
     <g>
      <use xlink:href="#m5165095f8f" x="80.4" y="74.803875" style="fill: #008000; stroke: #008000; stroke-linejoin: miter"/>
     </g>
    </g>
    <g id="text_20">
     <!-- Алг. Винограда -->
     <g transform="translate(102 79.003875) scale(0.12 -0.12)">
      <defs>
       <path id="DejaVuSans-410" d="M 2188 4044 
L 1331 1722 
L 3047 1722 
L 2188 4044 
z
M 1831 4666 
L 2547 4666 
L 4325 0 
L 3669 0 
L 3244 1197 
L 1141 1197 
L 716 0 
L 50 0 
L 1831 4666 
z
" transform="scale(0.015625)"/>
      </defs>
      <use xlink:href="#DejaVuSans-410"/>
      <use xlink:href="#DejaVuSans-43b" x="68.408203"/>
      <use xlink:href="#DejaVuSans-433" x="132.324219"/>
      <use xlink:href="#DejaVuSans-2e" x="184.863281"/>
      <use xlink:href="#DejaVuSans-20" x="216.650391"/>
      <use xlink:href="#DejaVuSans-412" x="248.4375"/>
      <use xlink:href="#DejaVuSans-438" x="317.041016"/>
      <use xlink:href="#DejaVuSans-43d" x="382.03125"/>
      <use xlink:href="#DejaVuSans-43e" x="447.412109"/>
      <use xlink:href="#DejaVuSans-433" x="508.59375"/>
      <use xlink:href="#DejaVuSans-440" x="561.132812"/>
      <use xlink:href="#DejaVuSans-430" x="624.609375"/>
      <use xlink:href="#DejaVuSans-434" x="685.888672"/>
      <use xlink:href="#DejaVuSans-430" x="755.029297"/>
     </g>
    </g>
    <g id="line2d_38">
     <path d="M 68.4 92.417625 
L 80.4 92.417625 
L 92.4 92.417625 
" style="fill: none; stroke: #ff0000; stroke-width: 1.5; stroke-linecap: square"/>
     <g>
      <use xlink:href="#m647ddaa5de" x="80.4" y="92.417625" style="fill: #ff0000; stroke: #ff0000; stroke-linejoin: miter"/>
     </g>
    </g>
    <g id="text_21">
     <!-- Алг. Винограда оптимизированный -->
     <g transform="translate(102 96.617625) scale(0.12 -0.12)">
      <defs>
       <path id="DejaVuSans-43f" d="M 3603 3500 
L 3603 0 
L 3025 0 
L 3025 3041 
L 1159 3041 
L 1159 0 
L 581 0 
L 581 3500 
L 3603 3500 
z
" transform="scale(0.015625)"/>
       <path id="DejaVuSans-432" d="M 1156 1613 
L 1156 459 
L 1975 459 
Q 2369 459 2575 607 
Q 2781 756 2781 1038 
Q 2781 1319 2575 1466 
Q 2369 1613 1975 1613 
L 1156 1613 
z
M 1156 3041 
L 1156 2072 
L 1913 2072 
Q 2238 2072 2444 2201 
Q 2650 2331 2650 2563 
Q 2650 2794 2444 2917 
Q 2238 3041 1913 3041 
L 1156 3041 
z
M 581 3500 
L 1950 3500 
Q 2566 3500 2897 3275 
Q 3228 3050 3228 2634 
Q 3228 2313 3059 2123 
Q 2891 1934 2559 1888 
Q 2956 1813 3175 1575 
Q 3394 1338 3394 981 
Q 3394 513 3033 256 
Q 2672 0 2003 0 
L 581 0 
L 581 3500 
z
" transform="scale(0.015625)"/>
      </defs>
      <use xlink:href="#DejaVuSans-410"/>
      <use xlink:href="#DejaVuSans-43b" x="68.408203"/>
      <use xlink:href="#DejaVuSans-433" x="132.324219"/>
      <use xlink:href="#DejaVuSans-2e" x="184.863281"/>
      <use xlink:href="#DejaVuSans-20" x="216.650391"/>
      <use xlink:href="#DejaVuSans-412" x="248.4375"/>
      <use xlink:href="#DejaVuSans-438" x="317.041016"/>
      <use xlink:href="#DejaVuSans-43d" x="382.03125"/>
      <use xlink:href="#DejaVuSans-43e" x="447.412109"/>
      <use xlink:href="#DejaVuSans-433" x="508.59375"/>
      <use xlink:href="#DejaVuSans-440" x="561.132812"/>
      <use xlink:href="#DejaVuSans-430" x="624.609375"/>
      <use xlink:href="#DejaVuSans-434" x="685.888672"/>
      <use xlink:href="#DejaVuSans-430" x="755.029297"/>
      <use xlink:href="#DejaVuSans-20" x="816.308594"/>
      <use xlink:href="#DejaVuSans-43e" x="848.095703"/>
      <use xlink:href="#DejaVuSans-43f" x="909.277344"/>
      <use xlink:href="#DejaVuSans-442" x="974.658203"/>
      <use xlink:href="#DejaVuSans-438" x="1032.910156"/>
      <use xlink:href="#DejaVuSans-43c" x="1097.900391"/>
      <use xlink:href="#DejaVuSans-438" x="1173.339844"/>
      <use xlink:href="#DejaVuSans-437" x="1238.330078"/>
      <use xlink:href="#DejaVuSans-438" x="1291.503906"/>
      <use xlink:href="#DejaVuSans-440" x="1356.494141"/>
      <use xlink:href="#DejaVuSans-43e" x="1419.970703"/>
      <use xlink:href="#DejaVuSans-432" x="1481.152344"/>
      <use xlink:href="#DejaVuSans-430" x="1540.087891"/>
      <use xlink:href="#DejaVuSans-43d" x="1601.367188"/>
      <use xlink:href="#DejaVuSans-43d" x="1666.748047"/>
      <use xlink:href="#DejaVuSans-44b" x="1732.128906"/>
      <use xlink:href="#DejaVuSans-439" x="1811.083984"/>
     </g>
    </g>
   </g>
  </g>
 </g>
 <defs>
  <clipPath id="pf24da8e76b">
   <rect x="57.6" y="41.472" width="357.12" height="266.112"/>
  </clipPath>
 </defs>
</svg>
